<svg id="svg" version="1.1" xmlns="http://www.w3.org/2000/svg" xmlns:xlink="http://www.w3.org/1999/xlink" width="400" height="264.21173762945915" viewBox="0, 0, 400,264.21173762945915"><g id="svgg"><path id="path0" d="M108.658 88.305 C 108.658 128.295,108.756 155.380,108.900 155.655 C 109.171 156.167,109.722 157.490,110.249 158.890 C 110.441 159.399,110.707 159.958,110.840 160.134 C 110.974 160.309,111.013 160.567,110.927 160.706 C 110.840 160.845,110.875 160.999,111.004 161.048 C 111.302 161.161,113.153 164.906,113.153 165.396 C 113.153 165.598,113.252 165.763,113.372 165.763 C 113.493 165.763,113.757 166.091,113.959 166.490 C 114.161 166.890,114.717 167.844,115.194 168.611 C 115.671 169.377,116.061 170.075,116.061 170.162 C 116.061 170.249,117.072 171.832,118.308 173.680 C 119.544 175.527,120.555 177.178,120.555 177.349 C 120.555 177.520,120.663 177.660,120.795 177.660 C 120.926 177.660,121.374 178.166,121.789 178.784 C 122.205 179.402,123.227 180.823,124.062 181.942 C 124.896 183.061,125.578 184.054,125.578 184.147 C 125.578 184.241,125.796 184.515,126.061 184.756 C 126.327 184.997,127.724 186.682,129.166 188.500 C 130.608 190.317,131.967 191.983,132.186 192.201 C 132.406 192.419,133.270 193.430,134.106 194.448 C 134.942 195.466,136.429 197.236,137.410 198.382 C 139.470 200.788,154.220 215.730,155.961 217.174 C 156.604 217.708,158.210 219.133,159.530 220.342 C 162.987 223.507,164.826 225.134,167.315 227.231 C 168.524 228.249,169.844 229.379,170.250 229.742 C 170.655 230.106,171.798 231.058,172.789 231.857 C 173.781 232.657,174.871 233.579,175.213 233.906 C 175.554 234.233,175.918 234.501,176.020 234.501 C 176.123 234.501,176.708 234.947,177.322 235.492 C 177.936 236.038,178.995 236.898,179.675 237.405 C 180.356 237.911,181.341 238.711,181.864 239.183 C 182.388 239.655,182.899 240.043,183.002 240.047 C 183.104 240.050,183.486 240.350,183.849 240.714 C 184.213 241.077,184.605 241.379,184.720 241.384 C 185.071 241.398,186.120 242.365,186.120 242.673 C 186.120 242.831,186.223 242.931,186.348 242.895 C 186.588 242.825,190.359 245.450,191.288 246.333 C 191.585 246.615,191.942 246.894,192.081 246.953 C 192.220 247.011,193.322 247.773,194.531 248.645 C 197.949 251.113,197.851 251.067,198.582 250.553 C 202.188 248.014,203.823 246.845,204.471 246.338 C 204.895 246.008,206.560 244.762,208.173 243.570 C 209.785 242.379,211.223 241.305,211.368 241.183 C 212.552 240.194,213.559 239.556,213.705 239.702 C 213.801 239.798,213.885 239.708,213.891 239.502 C 213.897 239.296,214.879 238.387,216.072 237.483 C 218.259 235.825,219.226 235.040,220.548 233.849 C 221.943 232.593,222.621 232.251,222.887 232.671 C 223.067 232.955,223.126 232.893,223.129 232.417 C 223.131 232.071,223.361 231.595,223.640 231.359 C 223.919 231.124,225.069 230.159,226.197 229.213 C 227.805 227.865,233.731 222.716,235.466 221.159 C 235.633 221.008,236.823 219.939,238.110 218.783 C 243.387 214.040,259.011 198.058,260.615 195.761 C 260.852 195.422,263.646 192.118,263.849 191.937 C 263.930 191.864,264.469 191.210,265.045 190.482 C 265.622 189.755,266.153 189.101,266.226 189.028 C 266.341 188.914,267.943 186.921,268.734 185.909 C 268.881 185.721,269.270 185.280,269.597 184.930 C 269.924 184.580,270.192 184.198,270.192 184.081 C 270.192 183.964,270.462 183.571,270.793 183.209 C 272.349 181.505,278.526 172.439,279.752 170.059 C 280.071 169.442,280.496 168.936,280.697 168.936 C 280.898 168.936,280.992 168.823,280.907 168.684 C 280.695 168.341,282.112 165.763,282.512 165.763 C 282.702 165.763,282.776 165.548,282.694 165.235 C 282.617 164.939,282.686 164.706,282.851 164.706 C 283.013 164.706,283.146 164.527,283.146 164.309 C 283.146 164.091,283.272 163.913,283.426 163.913 C 283.580 163.913,283.643 163.810,283.566 163.686 C 283.365 163.361,284.013 162.067,284.377 162.064 C 284.552 162.063,284.624 161.837,284.545 161.533 C 284.468 161.243,284.519 161.005,284.657 161.005 C 284.796 161.005,284.909 160.856,284.909 160.674 C 284.909 160.492,285.095 159.927,285.323 159.418 C 285.550 158.909,285.897 158.106,286.092 157.634 C 286.288 157.161,286.595 156.775,286.776 156.775 C 287.036 156.775,287.105 142.789,287.110 89.095 L 287.116 21.414 197.887 21.414 L 108.658 21.414 108.658 88.305 M281.231 56.246 L 281.298 84.865 197.886 84.865 L 114.475 84.865 114.475 56.356 C 114.475 40.676,114.554 27.768,114.651 27.671 C 114.748 27.574,152.253 27.524,197.996 27.561 L 281.163 27.627 281.231 56.246 M126.636 37.546 C 126.636 37.852,129.767 42.673,130.510 43.511 C 131.312 44.415,132.597 44.679,136.193 44.679 C 138.061 44.679,139.590 44.771,139.590 44.882 C 139.590 44.993,138.154 46.510,136.399 48.253 C 131.820 52.798,132.188 51.462,132.188 63.572 L 132.188 73.761 142.485 73.761 C 154.896 73.761,155.778 73.624,159.229 71.163 C 162.003 69.185,162.855 67.157,162.855 62.530 L 162.855 59.030 161.795 57.826 C 161.212 57.164,160.201 56.284,159.549 55.872 C 158.107 54.962,158.108 54.970,159.404 53.944 C 159.977 53.490,160.882 52.525,161.414 51.800 L 162.382 50.482 162.274 47.382 C 162.083 41.880,159.383 38.708,153.920 37.569 C 152.059 37.181,126.636 37.160,126.636 37.546 M173.113 38.414 C 172.342 39.042,171.444 39.953,171.117 40.438 L 170.522 41.321 170.522 57.543 L 170.522 73.765 184.468 73.697 L 198.414 73.629 198.490 70.588 C 198.533 68.916,198.501 67.280,198.419 66.953 L 198.271 66.358 189.016 66.358 L 179.760 66.358 179.834 62.723 L 179.907 59.088 187.913 59.018 L 195.918 58.948 195.844 55.713 L 195.770 52.479 187.839 52.346 L 179.907 52.214 179.907 48.513 L 179.907 44.812 189.161 44.679 L 198.414 44.547 198.414 40.978 L 198.414 37.409 186.464 37.340 L 174.514 37.272 173.113 38.414 M209.156 38.332 C 208.409 38.922,207.471 39.899,207.071 40.503 L 206.345 41.600 206.345 57.614 L 206.345 73.629 220.093 73.629 L 233.840 73.629 233.917 70.588 C 233.959 68.916,233.927 67.280,233.846 66.953 L 233.698 66.358 224.716 66.358 L 215.735 66.358 215.667 51.884 L 215.598 37.409 213.056 37.334 L 210.513 37.259 209.156 38.332 M243.904 38.539 C 241.138 40.900,241.378 39.085,241.376 57.570 L 241.375 73.765 255.056 73.697 L 268.738 73.629 268.738 70.059 L 268.738 66.490 259.749 66.358 L 250.760 66.226 250.628 51.818 L 250.496 37.409 247.950 37.334 L 245.405 37.259 243.904 38.539 M151.583 45.451 C 153.930 46.614,154.579 48.873,153.061 50.602 C 151.740 52.106,150.625 52.375,146.067 52.289 L 142.102 52.214 142.027 48.791 C 141.986 46.909,142.016 45.205,142.092 45.005 C 142.360 44.308,150.002 44.667,151.583 45.451 M151.813 58.925 C 155.280 60.412,155.326 64.303,151.895 65.861 C 150.996 66.269,150.121 66.348,146.398 66.352 L 141.970 66.358 141.970 62.569 C 141.970 60.485,142.049 58.700,142.146 58.603 C 142.596 58.153,150.636 58.421,151.813 58.925 M186.649 92.267 C 188.127 93.139,189.364 93.853,189.399 93.853 C 189.713 93.853,196.351 97.861,196.544 98.167 C 196.740 98.477,196.146 99.428,193.982 102.268 C 185.921 112.847,186.223 113.681,198.117 113.681 C 209.960 113.681,210.097 112.527,199.789 99.617 C 198.685 98.235,198.623 98.291,205.603 94.296 L 211.920 90.681 246.608 90.681 L 281.295 90.681 281.295 122.334 L 281.295 153.987 280.587 155.844 C 277.959 162.732,265.764 182.011,262.271 184.798 C 262.180 184.871,261.532 185.644,260.830 186.517 C 259.035 188.749,255.192 193.104,253.073 195.308 C 252.746 195.648,252.479 196.035,252.479 196.167 C 252.479 196.432,241.524 207.489,237.933 210.848 C 233.225 215.253,227.108 220.730,224.058 223.270 C 223.040 224.118,221.783 225.178,221.263 225.625 C 220.153 226.581,219.726 226.934,216.920 229.213 C 215.757 230.159,214.746 230.999,214.673 231.082 C 214.435 231.352,205.089 238.589,202.294 240.667 C 199.912 242.439,198.810 243.038,198.810 242.561 C 198.810 242.487,199.055 241.565,199.353 240.512 C 200.264 237.303,200.963 233.108,201.574 227.186 C 201.893 224.092,202.047 217.413,202.249 197.977 C 202.536 170.365,202.438 171.742,204.264 169.500 C 205.754 167.672,205.751 167.656,203.569 166.064 C 200.917 164.129,200.975 163.888,204.627 161.681 C 208.608 159.274,209.583 158.004,208.274 156.934 C 207.900 156.628,205.426 154.484,202.775 152.169 C 199.305 149.138,197.860 148.027,197.612 148.203 C 196.741 148.821,187.491 156.953,187.251 157.313 C 186.564 158.342,188.827 160.624,192.122 162.227 C 194.924 163.590,194.887 164.288,191.908 166.311 C 190.064 167.564,190.024 167.800,191.405 169.298 C 193.507 171.579,193.353 169.588,193.548 196.960 C 193.713 220.184,193.839 224.173,194.613 230.668 C 194.976 233.721,195.737 237.795,196.415 240.317 C 197.114 242.922,197.112 243.061,196.377 242.668 C 195.858 242.390,188.566 236.978,188.235 236.625 C 188.163 236.547,187.154 235.770,185.995 234.898 C 182.675 232.400,168.248 220.432,167.217 219.320 C 167.072 219.163,166.477 218.631,165.896 218.137 C 160.470 213.530,145.540 198.989,143.609 196.431 C 143.225 195.922,142.193 194.729,141.316 193.781 C 129.423 180.910,119.824 166.964,115.229 155.879 L 114.475 154.058 114.475 122.369 L 114.475 90.681 149.218 90.681 L 183.962 90.681 186.649 92.267 M120.820 105.261 C 120.820 105.428,121.144 106.231,121.540 107.046 C 122.964 109.971,123.531 110.341,136.555 116.836 C 156.952 127.009,157.490 127.255,161.005 128.016 C 161.659 128.158,167.494 128.352,173.971 128.446 C 184.623 128.602,185.816 128.663,186.463 129.087 C 187.777 129.949,187.279 130.310,183.080 131.541 C 181.771 131.925,180.046 132.455,179.247 132.719 C 178.447 132.983,175.889 133.792,173.562 134.516 C 171.236 135.241,167.592 136.381,165.465 137.051 C 163.338 137.721,161.463 138.268,161.298 138.268 C 161.133 138.268,160.791 138.381,160.538 138.520 C 160.286 138.658,159.128 139.057,157.964 139.407 C 153.249 140.826,151.836 141.257,150.826 141.584 C 150.245 141.772,147.806 142.540,145.406 143.291 C 143.007 144.042,139.974 144.992,138.665 145.402 C 137.356 145.812,134.679 146.645,132.716 147.252 C 128.491 148.561,128.391 148.592,124.653 149.774 C 123.054 150.280,121.603 150.694,121.430 150.694 C 119.994 150.695,121.969 153.408,124.357 154.715 C 125.500 155.340,169.357 155.422,172.637 154.805 C 178.374 153.724,180.064 152.782,191.672 144.180 C 194.890 141.795,194.698 142.365,194.799 134.897 C 194.942 124.323,193.883 121.566,188.617 118.807 C 185.886 117.376,184.368 116.942,177.660 115.677 C 176.424 115.444,174.878 115.137,174.223 114.996 C 173.569 114.854,171.368 114.431,169.332 114.056 C 161.931 112.692,160.045 112.337,158.229 111.964 C 157.211 111.755,154.712 111.275,152.677 110.898 C 147.565 109.951,146.792 109.805,143.027 109.076 C 141.210 108.724,138.354 108.180,136.682 107.867 C 131.801 106.953,129.812 106.571,127.561 106.115 C 125.445 105.687,121.391 104.972,121.018 104.962 C 120.909 104.959,120.820 105.094,120.820 105.261 M273.496 105.131 C 273.206 105.193,271.362 105.545,269.399 105.912 C 267.436 106.280,264.997 106.745,263.979 106.945 C 262.961 107.146,259.868 107.736,257.105 108.257 C 254.342 108.778,251.547 109.313,250.892 109.445 C 250.238 109.576,248.632 109.877,247.323 110.114 C 246.015 110.350,243.754 110.774,242.300 111.057 C 236.560 112.172,235.584 112.358,232.650 112.898 C 230.978 113.206,228.509 113.687,227.164 113.967 C 225.818 114.248,223.974 114.591,223.066 114.731 C 222.158 114.870,220.582 115.159,219.564 115.372 C 218.546 115.585,216.642 115.960,215.334 116.204 C 207.845 117.605,203.819 120.050,201.787 124.433 L 201.072 125.975 201.065 133.555 C 201.056 142.511,200.717 141.550,205.040 144.812 C 214.719 152.115,217.716 153.772,223.113 154.805 C 226.125 155.381,269.945 155.375,271.326 154.798 C 273.485 153.896,275.832 150.694,274.335 150.694 C 274.177 150.694,272.794 150.291,271.261 149.799 C 269.728 149.306,267.403 148.579,266.094 148.183 C 264.785 147.787,263.060 147.247,262.260 146.984 C 261.461 146.721,259.200 146.014,257.237 145.411 C 255.274 144.809,253.371 144.214,253.007 144.089 C 252.644 143.964,251.573 143.626,250.628 143.339 C 247.468 142.378,241.787 140.611,240.317 140.131 C 239.518 139.871,237.792 139.334,236.484 138.938 C 235.175 138.542,233.807 138.119,233.443 137.997 C 232.597 137.714,225.269 135.436,221.150 134.175 C 219.405 133.641,217.323 132.989,216.523 132.726 C 215.724 132.463,213.999 131.926,212.690 131.533 C 208.423 130.252,207.998 129.945,209.307 129.087 C 209.954 128.663,211.149 128.602,221.799 128.445 C 233.412 128.275,234.535 128.192,237.409 127.301 C 240.730 126.272,271.041 111.084,272.376 109.780 C 273.160 109.015,275.215 105.604,275.215 105.068 C 275.215 104.936,274.243 104.972,273.496 105.131 " stroke="none" fill="#faf8f8" fill-rule="evenodd"></path><path id="path1" d="M114.739 56.312 L 114.739 84.600 197.885 84.600 L 281.031 84.600 281.031 56.312 L 281.031 28.024 197.885 28.024 L 114.739 28.024 114.739 56.312 M156.339 37.913 C 160.735 39.766,162.591 42.638,162.591 47.590 C 162.591 51.222,162.269 51.998,159.945 53.975 L 158.837 54.917 159.723 55.525 C 162.927 57.726,163.520 59.024,163.323 63.404 C 163.056 69.354,159.747 72.827,153.223 74.006 C 150.680 74.466,132.333 74.387,131.941 73.915 C 131.711 73.638,131.651 70.860,131.711 63.274 L 131.791 53.007 132.635 51.818 C 133.098 51.163,134.675 49.447,136.138 48.003 C 139.421 44.763,139.458 44.944,135.510 44.944 C 131.898 44.944,131.338 44.817,130.287 43.765 C 129.212 42.689,126.044 37.593,126.246 37.266 C 126.371 37.064,130.584 37.005,140.475 37.064 L 154.527 37.150 156.339 37.913 M198.678 40.978 L 198.678 44.812 189.425 44.944 L 180.172 45.076 180.172 48.513 L 180.172 51.950 188.090 52.020 C 194.020 52.072,196.060 52.172,196.215 52.416 C 196.458 52.798,196.498 57.755,196.265 58.621 L 196.107 59.212 188.139 59.282 L 180.172 59.352 180.098 62.720 L 180.024 66.087 189.351 66.157 L 198.678 66.226 198.752 70.039 C 198.807 72.913,198.742 73.905,198.487 74.067 C 197.628 74.612,170.558 74.321,170.259 73.763 C 170.067 73.403,170.001 68.166,170.052 57.174 C 170.136 38.845,169.878 40.682,172.697 38.326 L 174.276 37.007 186.477 37.076 L 198.678 37.145 198.678 40.978 M215.995 51.553 L 216.127 65.962 225.116 66.094 L 234.104 66.226 234.178 70.039 C 234.234 72.913,234.168 73.905,233.914 74.067 C 233.055 74.612,206.513 74.321,206.214 73.763 C 206.022 73.403,205.956 68.207,206.007 57.306 L 206.081 41.375 206.701 40.377 C 207.042 39.829,207.980 38.843,208.785 38.188 L 210.248 36.995 213.055 37.070 L 215.863 37.145 215.995 51.553 M250.898 51.553 C 250.974 59.478,251.063 65.990,251.096 66.024 C 251.129 66.059,255.172 66.118,260.079 66.156 L 269.002 66.226 269.075 70.119 C 269.148 73.978,269.143 74.013,268.546 74.158 C 268.215 74.238,261.937 74.271,254.594 74.231 L 241.243 74.157 241.170 57.898 C 241.083 38.677,240.790 40.681,244.104 37.856 L 245.114 36.995 247.937 37.070 L 250.760 37.145 250.898 51.553 M142.363 45.253 C 142.282 45.464,142.250 47.056,142.291 48.793 L 142.366 51.950 145.667 52.024 C 147.482 52.066,149.563 51.971,150.292 51.815 C 154.112 50.996,154.529 47.099,150.961 45.553 C 149.603 44.965,142.568 44.720,142.363 45.253 M142.432 58.846 C 142.323 58.955,142.234 60.640,142.234 62.591 L 142.234 66.138 146.662 66.049 C 152.611 65.928,153.866 65.291,153.866 62.393 C 153.866 60.753,153.478 60.127,151.942 59.291 C 151.040 58.800,142.860 58.417,142.432 58.846 M114.739 122.295 L 114.739 153.644 115.433 155.408 C 119.596 165.980,129.978 181.068,141.934 193.919 C 142.611 194.646,143.505 195.698,143.921 196.257 C 145.339 198.160,159.008 211.644,163.154 215.230 C 163.499 215.528,164.257 216.208,164.839 216.742 C 165.420 217.276,166.787 218.486,167.875 219.432 C 168.963 220.377,170.212 221.462,170.650 221.842 C 172.506 223.454,175.478 225.965,177.762 227.852 C 180.314 229.960,180.520 230.126,184.402 233.183 C 185.711 234.214,186.993 235.231,187.251 235.444 C 189.393 237.205,196.226 242.196,196.340 242.083 C 196.419 242.004,196.365 241.544,196.220 241.062 C 195.851 239.833,195.201 236.801,194.871 234.765 C 194.718 233.820,194.476 232.393,194.333 231.593 C 193.769 228.438,193.251 212.618,193.061 192.730 C 192.842 169.911,192.984 171.595,191.106 169.537 C 189.581 167.866,189.699 167.356,191.952 165.885 C 194.020 164.536,194.248 163.903,192.943 163.140 C 187.763 160.111,186.253 158.716,186.751 157.419 C 186.977 156.831,197.453 147.786,197.908 147.786 C 198.154 147.786,198.847 148.232,199.449 148.777 C 200.050 149.323,201.308 150.423,202.243 151.223 C 204.148 152.851,208.283 156.469,208.790 156.952 C 209.697 157.813,208.716 159.470,206.449 160.908 C 205.519 161.497,204.134 162.368,203.371 162.842 C 201.569 163.960,201.608 164.160,203.966 165.904 C 205.056 166.711,205.944 167.455,205.939 167.558 C 205.921 167.912,205.288 168.889,204.494 169.787 C 202.810 171.694,202.935 170.012,202.728 193.523 C 202.453 224.728,202.059 231.369,200.007 239.368 C 199.204 242.499,199.205 242.502,200.979 241.214 C 217.451 229.254,242.130 207.456,251.831 196.299 C 252.969 194.990,254.702 193.027,255.683 191.937 C 262.132 184.764,268.995 175.880,272.840 169.729 C 276.080 164.545,276.433 163.885,280.268 155.849 L 280.899 154.527 280.968 122.736 L 281.037 90.945 246.651 90.945 L 212.265 90.945 210.759 91.781 C 209.931 92.241,208.837 92.853,208.328 93.141 C 207.819 93.428,206.867 93.960,206.213 94.323 C 205.558 94.685,204.904 95.072,204.759 95.183 C 204.519 95.365,203.593 95.891,200.925 97.357 C 199.194 98.309,199.187 98.254,201.406 101.124 C 210.563 112.964,210.295 113.946,197.900 113.946 C 190.653 113.946,190.053 113.869,188.830 112.792 C 187.635 111.738,188.746 108.158,191.103 105.465 C 191.284 105.258,192.047 104.256,192.798 103.239 C 193.550 102.221,194.289 101.260,194.439 101.105 C 194.589 100.949,195.010 100.384,195.373 99.851 C 195.737 99.317,196.124 98.879,196.233 98.878 C 196.896 98.872,196.212 98.082,194.911 97.351 C 193.000 96.277,190.795 95.031,189.425 94.251 C 188.843 93.920,187.297 93.043,185.988 92.302 L 183.609 90.955 149.174 90.950 L 114.739 90.945 114.739 122.295 M122.111 104.682 C 122.637 104.822,124.137 105.123,125.446 105.353 C 126.755 105.582,128.301 105.876,128.883 106.006 C 129.465 106.137,130.714 106.381,131.659 106.549 C 133.415 106.861,136.405 107.425,138.533 107.844 C 140.704 108.272,142.594 108.633,146.200 109.309 C 148.163 109.677,150.364 110.098,151.091 110.245 C 153.430 110.718,158.193 111.627,159.418 111.834 C 161.538 112.193,166.657 113.154,167.878 113.423 C 168.533 113.567,170.674 113.982,172.637 114.346 C 174.600 114.709,176.801 115.124,177.528 115.267 C 178.255 115.410,179.843 115.717,181.056 115.949 C 187.758 117.229,192.231 119.924,194.188 123.860 L 194.977 125.446 194.977 133.402 C 194.977 142.596,195.075 142.180,192.479 144.017 C 191.526 144.691,190.687 145.318,190.615 145.409 C 189.814 146.422,180.272 152.701,178.189 153.586 C 173.493 155.582,173.859 155.557,148.518 155.652 C 122.375 155.750,124.516 155.957,121.760 153.067 C 119.772 150.982,119.807 150.843,122.538 150.031 C 123.410 149.771,125.367 149.160,126.886 148.672 C 128.405 148.185,129.804 147.786,129.996 147.786 C 130.188 147.786,130.551 147.671,130.803 147.531 C 131.056 147.390,132.690 146.845,134.435 146.319 C 136.180 145.793,138.083 145.208,138.665 145.020 C 139.957 144.601,142.053 143.946,146.728 142.500 C 153.450 140.422,157.966 139.008,160.752 138.110 C 162.285 137.615,163.685 137.211,163.862 137.211 C 164.039 137.211,164.391 137.099,164.643 136.961 C 164.896 136.824,166.173 136.395,167.482 136.007 C 168.790 135.619,170.516 135.090,171.315 134.832 C 172.115 134.573,173.840 134.037,175.149 133.639 C 176.457 133.241,178.004 132.757,178.586 132.563 C 179.167 132.369,181.219 131.724,183.146 131.130 C 189.186 129.268,188.472 129.087,174.487 128.934 C 159.150 128.767,160.428 129.072,146.861 122.335 C 141.626 119.736,134.428 116.160,130.866 114.389 C 123.726 110.840,122.591 110.003,121.311 107.336 C 119.906 104.410,119.993 104.120,122.111 104.682 M275.387 104.834 C 275.609 105.413,274.091 108.359,272.835 109.786 C 271.866 110.886,270.320 111.718,255.977 118.855 C 234.464 129.558,237.085 128.798,221.153 128.949 C 210.345 129.051,209.121 129.138,209.121 129.809 C 209.121 129.919,210.340 130.389,211.831 130.852 C 213.321 131.316,214.838 131.799,215.202 131.925 C 215.565 132.052,217.469 132.648,219.432 133.250 C 221.395 133.852,223.655 134.560,224.455 134.823 C 225.254 135.086,226.980 135.621,228.288 136.012 C 229.597 136.403,230.965 136.825,231.328 136.950 C 231.692 137.075,233.774 137.725,235.955 138.395 C 238.136 139.065,240.397 139.769,240.978 139.958 C 241.560 140.147,242.452 140.429,242.961 140.584 C 243.470 140.738,245.849 141.479,248.249 142.229 C 250.648 142.979,253.979 144.014,255.651 144.530 C 257.323 145.046,259.346 145.682,260.145 145.945 C 260.945 146.207,263.206 146.914,265.169 147.516 C 267.132 148.117,269.451 148.836,270.324 149.114 C 271.196 149.391,272.713 149.870,273.695 150.178 C 274.680 150.487,275.479 150.889,275.479 151.076 C 275.479 152.059,272.690 154.682,270.999 155.290 C 269.152 155.954,225.694 155.810,222.604 155.130 C 218.446 154.215,215.710 152.898,210.970 149.531 C 199.485 141.374,200.793 143.431,200.793 133.528 L 200.793 125.711 201.656 123.992 C 203.797 119.728,207.807 117.271,214.805 115.937 C 215.968 115.715,217.515 115.414,218.242 115.269 C 218.969 115.123,221.229 114.700,223.265 114.330 C 225.301 113.959,227.442 113.542,228.024 113.404 C 229.029 113.165,233.798 112.266,236.352 111.834 C 237.637 111.617,242.536 110.680,244.679 110.242 C 245.406 110.094,247.607 109.678,249.570 109.317 C 251.533 108.957,253.675 108.550,254.329 108.413 C 254.983 108.276,256.590 107.970,257.898 107.733 C 259.207 107.496,261.408 107.080,262.789 106.809 C 264.171 106.537,266.966 106.005,269.002 105.626 C 271.038 105.247,273.120 104.834,273.629 104.710 C 275.001 104.373,275.216 104.388,275.387 104.834 M287.376 155.056 C 287.376 155.274,287.495 155.453,287.640 155.453 C 287.786 155.453,287.905 155.274,287.905 155.056 C 287.905 154.838,287.786 154.660,287.640 154.660 C 287.495 154.660,287.376 154.838,287.376 155.056 M108.923 157.700 C 108.923 157.918,109.042 158.096,109.187 158.096 C 109.332 158.096,109.451 157.918,109.451 157.700 C 109.451 157.482,109.332 157.303,109.187 157.303 C 109.042 157.303,108.923 157.482,108.923 157.700 M286.502 157.472 C 286.291 157.684,286.530 158.096,286.863 158.096 C 287.000 158.096,287.112 157.918,287.112 157.700 C 287.112 157.291,286.800 157.175,286.502 157.472 M286.054 158.757 C 286.054 158.976,286.173 159.154,286.319 159.154 C 286.464 159.154,286.583 158.976,286.583 158.757 C 286.583 158.539,286.464 158.361,286.319 158.361 C 286.173 158.361,286.054 158.539,286.054 158.757 M110.773 161.930 C 110.773 162.148,110.892 162.327,111.038 162.327 C 111.183 162.327,111.302 162.148,111.302 161.930 C 111.302 161.712,111.183 161.533,111.038 161.533 C 110.892 161.533,110.773 161.712,110.773 161.930 M111.148 162.921 C 111.232 163.103,111.375 163.460,111.465 163.714 C 111.665 164.280,112.095 164.326,112.095 163.781 C 112.095 163.562,111.980 163.384,111.839 163.384 C 111.698 163.384,111.651 163.206,111.735 162.987 C 111.833 162.731,111.729 162.591,111.440 162.591 C 111.177 162.591,111.057 162.727,111.148 162.921 M284.204 162.987 C 284.204 163.206,284.323 163.384,284.468 163.384 C 284.613 163.384,284.732 163.206,284.732 162.987 C 284.732 162.769,284.613 162.591,284.468 162.591 C 284.323 162.591,284.204 162.769,284.204 162.987 M112.095 164.838 C 112.095 165.056,112.214 165.235,112.360 165.235 C 112.505 165.235,112.624 165.056,112.624 164.838 C 112.624 164.620,112.505 164.442,112.360 164.442 C 112.214 164.442,112.095 164.620,112.095 164.838 M115.796 171.183 C 115.796 171.401,115.915 171.580,116.061 171.580 C 116.206 171.580,116.325 171.401,116.325 171.183 C 116.325 170.965,116.206 170.787,116.061 170.787 C 115.915 170.787,115.796 170.965,115.796 171.183 M117.118 173.534 C 117.118 173.905,117.878 174.345,118.113 174.110 C 118.247 173.976,117.523 173.166,117.269 173.166 C 117.186 173.166,117.118 173.332,117.118 173.534 M118.176 174.984 C 118.176 175.112,118.354 175.364,118.572 175.545 C 119.003 175.903,119.057 175.817,118.808 175.170 C 118.639 174.728,118.176 174.591,118.176 174.984 M118.969 176.225 C 118.969 176.506,119.786 177.196,119.938 177.043 C 120.021 176.960,119.905 176.708,119.680 176.483 C 119.260 176.063,118.969 175.958,118.969 176.225 M121.348 179.398 C 121.348 179.481,121.527 179.727,121.745 179.945 C 122.175 180.376,122.229 180.312,121.981 179.665 C 121.830 179.272,121.348 179.068,121.348 179.398 M273.783 179.681 C 273.546 180.298,273.796 180.438,274.277 179.958 C 274.783 179.451,274.795 179.247,274.318 179.247 C 274.115 179.247,273.874 179.442,273.783 179.681 M122.141 180.800 C 122.141 181.138,122.919 181.730,123.111 181.538 C 123.303 181.346,122.712 180.568,122.373 180.568 C 122.246 180.568,122.141 180.673,122.141 180.800 M123.463 182.570 C 123.463 182.653,123.647 182.905,123.872 183.130 C 124.382 183.640,124.719 183.373,124.262 182.822 C 123.932 182.424,123.463 182.277,123.463 182.570 M125.314 185.035 C 125.314 185.164,125.492 185.339,125.711 185.423 C 125.952 185.515,126.107 185.423,126.107 185.187 C 126.107 184.973,125.929 184.798,125.711 184.798 C 125.492 184.798,125.314 184.905,125.314 185.035 M269.702 185.222 C 269.221 185.767,269.531 186.026,270.047 185.510 C 270.272 185.285,270.456 185.033,270.456 184.949 C 270.456 184.672,270.063 184.814,269.702 185.222 M126.904 186.847 C 126.912 187.209,127.398 187.826,127.553 187.671 C 127.761 187.462,127.429 186.649,127.136 186.649 C 127.006 186.649,126.902 186.738,126.904 186.847 M268.336 187.052 C 267.879 187.603,268.216 187.870,268.725 187.360 C 268.950 187.135,269.134 186.883,269.134 186.800 C 269.134 186.507,268.666 186.654,268.336 187.052 M128.755 189.227 C 128.757 189.336,128.870 189.600,129.005 189.814 C 129.309 190.296,129.667 189.994,129.453 189.436 C 129.295 189.024,128.747 188.860,128.755 189.227 M266.118 189.689 C 265.607 190.469,265.910 190.554,266.714 189.857 C 267.372 189.286,267.436 189.028,266.917 189.028 C 266.716 189.028,266.356 189.326,266.118 189.689 M130.866 191.816 C 130.866 192.080,132.218 193.317,132.355 193.179 C 132.521 193.014,131.387 191.672,131.083 191.672 C 130.963 191.672,130.866 191.737,130.866 191.816 M264.045 192.258 C 263.351 193.126,263.488 193.377,264.243 192.622 C 264.607 192.258,264.904 191.896,264.904 191.816 C 264.904 191.495,264.481 191.713,264.045 192.258 M133.782 195.175 C 133.792 195.549,135.096 196.586,135.096 196.219 C 135.096 195.936,134.179 194.845,133.941 194.845 C 133.849 194.845,133.778 194.993,133.782 195.175 M261.467 195.090 C 261.467 195.225,261.275 195.528,261.039 195.764 C 260.362 196.441,260.815 196.535,261.575 195.874 C 262.348 195.202,262.449 194.845,261.864 194.845 C 261.646 194.845,261.467 194.955,261.467 195.090 M135.096 196.939 C 135.096 197.178,136.613 198.810,136.835 198.810 C 137.119 198.810,136.875 198.342,136.180 197.555 C 135.409 196.680,135.096 196.502,135.096 196.939 M259.873 197.256 C 259.659 197.565,259.322 197.987,259.123 198.194 C 258.923 198.402,258.831 198.641,258.916 198.727 C 259.094 198.905,260.674 197.291,260.674 196.932 C 260.674 196.516,260.274 196.678,259.873 197.256 M139.590 202.115 C 139.590 202.333,139.704 202.512,139.843 202.512 C 140.066 202.512,140.351 202.773,141.626 204.151 C 142.256 204.831,142.800 205.206,142.946 205.060 C 143.101 204.905,140.063 201.718,139.761 201.718 C 139.667 201.718,139.590 201.897,139.590 202.115 M253.536 204.141 C 252.300 205.464,250.877 206.947,250.375 207.437 C 249.872 207.927,249.599 208.328,249.768 208.328 C 249.937 208.328,250.365 208.017,250.719 207.637 C 251.073 207.258,251.481 206.828,251.627 206.683 C 251.772 206.537,252.188 206.121,252.552 205.757 C 252.915 205.394,253.348 204.961,253.514 204.795 C 253.679 204.630,254.109 204.221,254.469 203.888 C 254.828 203.554,255.122 203.175,255.122 203.046 C 255.122 202.917,255.360 202.736,255.651 202.644 C 256.142 202.488,256.424 201.707,255.981 201.728 C 255.872 201.733,254.772 202.819,253.536 204.141 M246.901 210.967 C 246.307 211.457,246.156 211.595,245.473 212.279 C 245.327 212.424,244.509 213.206,243.654 214.015 C 242.799 214.824,242.167 215.553,242.249 215.635 C 242.439 215.825,242.938 215.410,244.716 213.587 C 244.841 213.459,245.633 212.699,246.476 211.898 C 247.941 210.506,248.232 209.869,246.901 210.967 M149.372 211.644 C 149.372 211.808,149.873 212.434,150.376 212.901 C 150.565 213.076,150.998 213.500,151.338 213.843 C 152.370 214.884,152.461 214.973,153.192 215.656 C 155.041 217.382,153.930 215.730,151.911 213.752 C 149.721 211.606,149.372 211.316,149.372 211.644 M238.039 219.243 C 237.877 219.420,237.491 219.739,237.180 219.953 C 236.565 220.377,236.441 220.753,236.918 220.753 C 237.209 220.753,238.731 219.313,238.731 219.037 C 238.731 218.798,238.343 218.914,238.039 219.243 M157.303 219.278 C 157.303 219.506,158.640 220.753,158.884 220.753 C 159.013 220.753,159.194 220.991,159.286 221.282 C 159.378 221.573,159.624 221.811,159.833 221.811 C 160.417 221.811,160.295 221.563,159.220 220.570 C 158.233 219.658,157.303 219.032,157.303 219.278 M161.798 223.280 C 161.798 223.476,163.838 225.512,164.035 225.512 C 164.320 225.512,164.166 225.052,163.714 224.554 C 163.178 223.963,161.798 223.045,161.798 223.280 M232.666 224.206 C 232.033 224.785,231.585 225.328,231.670 225.413 C 231.755 225.498,232.135 225.258,232.514 224.879 C 232.893 224.500,233.304 224.190,233.427 224.190 C 233.656 224.190,234.053 223.390,233.901 223.238 C 233.855 223.192,233.299 223.627,232.666 224.206 M229.874 226.607 C 229.729 226.739,229.323 227.083,228.973 227.371 C 228.622 227.659,228.408 227.968,228.498 228.057 C 228.587 228.146,228.852 228.026,229.088 227.791 C 229.323 227.555,229.613 227.363,229.733 227.363 C 229.944 227.363,230.356 226.558,230.211 226.431 C 230.171 226.396,230.020 226.475,229.874 226.607 M166.028 227.040 C 166.028 227.402,167.101 228.178,167.371 228.011 C 167.514 227.922,167.341 227.621,166.986 227.342 C 166.293 226.797,166.028 226.713,166.028 227.040 M226.081 229.707 C 225.412 230.287,225.361 230.535,225.909 230.535 C 226.127 230.535,226.305 230.425,226.305 230.290 C 226.305 230.155,226.492 229.857,226.721 229.629 C 227.306 229.044,226.770 229.110,226.081 229.707 M169.200 229.629 C 169.200 229.910,170.017 230.600,170.170 230.447 C 170.253 230.364,170.137 230.112,169.912 229.887 C 169.492 229.467,169.200 229.361,169.200 229.629 M171.580 231.542 C 171.580 231.938,172.629 233.011,172.824 232.816 C 172.926 232.715,172.687 232.334,172.294 231.969 C 171.901 231.605,171.580 231.413,171.580 231.542 M223.701 231.752 C 223.219 232.297,223.529 232.556,224.046 232.040 C 224.271 231.815,224.455 231.563,224.455 231.480 C 224.455 231.202,224.062 231.344,223.701 231.752 M174.223 233.859 C 174.223 233.942,174.408 234.194,174.633 234.419 C 175.142 234.928,175.479 234.661,175.022 234.111 C 174.692 233.713,174.223 233.565,174.223 233.859 M220.806 234.025 C 220.375 234.457,220.408 234.765,220.886 234.765 C 221.104 234.765,221.282 234.716,221.282 234.655 C 221.282 234.594,221.354 234.356,221.443 234.126 C 221.632 233.633,221.258 233.573,220.806 234.025 M176.603 235.710 C 176.603 235.793,176.781 236.039,176.999 236.257 C 177.430 236.688,177.484 236.624,177.235 235.977 C 177.085 235.584,176.603 235.380,176.603 235.710 M218.633 235.961 C 218.176 236.512,218.513 236.779,219.022 236.270 C 219.247 236.045,219.432 235.793,219.432 235.710 C 219.432 235.416,218.963 235.564,218.633 235.961 M178.982 237.655 C 178.982 237.790,179.169 238.087,179.398 238.316 C 179.819 238.737,180.304 238.870,180.304 238.564 C 180.304 238.398,179.250 237.409,179.074 237.409 C 179.023 237.409,178.982 237.520,178.982 237.655 M216.325 237.584 C 216.001 237.715,215.848 238.467,216.146 238.467 C 216.229 238.467,216.467 238.297,216.675 238.089 C 217.282 237.481,217.129 237.260,216.325 237.584 M181.097 239.409 C 181.097 239.607,181.806 240.317,182.004 240.317 C 182.340 240.317,182.122 239.895,181.626 239.585 C 181.335 239.404,181.097 239.324,181.097 239.409 M212.069 241.006 C 211.872 241.228,211.780 241.478,211.864 241.562 C 212.048 241.746,212.822 241.141,212.822 240.814 C 212.822 240.463,212.469 240.553,212.069 241.006 M187.178 243.986 C 187.178 244.318,187.954 244.917,188.141 244.730 C 188.227 244.643,188.114 244.388,187.889 244.163 C 187.430 243.704,187.178 243.641,187.178 243.986 M207.953 244.189 C 207.716 244.806,207.967 244.946,208.447 244.465 C 208.954 243.959,208.966 243.754,208.488 243.754 C 208.286 243.754,208.045 243.950,207.953 244.189 M189.132 245.494 C 189.221 245.724,189.293 245.962,189.293 246.023 C 189.293 246.084,189.471 246.134,189.689 246.134 C 190.186 246.134,190.192 245.937,189.708 245.454 C 189.209 244.954,188.933 244.974,189.132 245.494 M206.205 245.482 C 205.749 246.032,206.090 246.294,206.599 245.785 C 206.825 245.559,206.904 245.308,206.774 245.228 C 206.644 245.148,206.388 245.262,206.205 245.482 M204.362 246.927 C 204.362 247.072,204.541 247.191,204.759 247.191 C 204.977 247.191,205.155 247.072,205.155 246.927 C 205.155 246.781,204.977 246.662,204.759 246.662 C 204.541 246.662,204.362 246.781,204.362 246.927 M202.974 247.837 C 202.417 248.244,202.380 248.513,202.880 248.513 C 203.082 248.513,203.323 248.317,203.415 248.078 C 203.639 247.495,203.526 247.433,202.974 247.837 M194.052 248.928 C 194.052 249.209,194.869 249.899,195.021 249.747 C 195.104 249.664,194.988 249.411,194.763 249.186 C 194.343 248.767,194.052 248.661,194.052 248.928 M200.991 249.173 C 200.557 249.666,200.574 249.835,201.058 249.835 C 201.276 249.835,201.454 249.785,201.454 249.724 C 201.454 249.663,201.526 249.425,201.615 249.195 C 201.813 248.679,201.438 248.666,200.991 249.173 M197.224 251.421 C 197.224 251.566,197.521 251.685,197.885 251.685 C 198.249 251.685,198.546 251.566,198.546 251.421 C 198.546 251.276,198.249 251.157,197.885 251.157 C 197.521 251.157,197.224 251.276,197.224 251.421 " stroke="none" fill="#b4141c" fill-rule="evenodd"></path><path id="path2" d="M107.865 88.169 C 107.865 132.496,107.954 154.924,108.130 154.924 C 108.275 154.924,108.394 155.221,108.394 155.585 C 108.394 155.948,108.513 156.246,108.658 156.246 C 108.804 156.246,108.923 156.484,108.923 156.775 C 108.923 157.065,109.042 157.303,109.187 157.303 C 109.332 157.303,109.451 157.534,109.451 157.817 C 109.451 158.099,109.565 158.400,109.704 158.486 C 109.843 158.572,109.895 158.805,109.818 159.004 C 109.742 159.202,109.807 159.443,109.962 159.539 C 110.117 159.635,110.245 160.004,110.245 160.359 C 110.245 160.714,110.356 161.005,110.493 161.005 C 110.894 161.005,111.104 160.480,110.840 160.134 C 110.707 159.958,110.441 159.399,110.249 158.890 C 109.722 157.490,109.171 156.167,108.900 155.655 C 108.756 155.380,108.658 128.295,108.658 88.305 C 108.658 29.023,108.613 21.414,108.262 21.414 C 107.910 21.414,107.865 29.008,107.865 88.169 M287.108 88.216 C 287.106 124.978,287.033 155.324,286.945 155.651 C 286.849 156.008,286.904 156.246,287.081 156.246 C 287.243 156.246,287.376 155.889,287.376 155.453 C 287.376 155.017,287.495 154.660,287.640 154.660 C 288.125 154.660,287.993 22.258,287.508 21.773 C 287.156 21.421,287.111 28.803,287.108 88.216 M114.651 27.671 C 114.554 27.768,114.475 40.676,114.475 56.356 L 114.475 84.865 197.886 84.865 L 281.298 84.865 281.231 56.246 L 281.163 27.627 197.996 27.561 C 152.253 27.524,114.748 27.574,114.651 27.671 M281.031 56.312 L 281.031 84.600 197.885 84.600 L 114.739 84.600 114.739 56.312 L 114.739 28.024 197.885 28.024 L 281.031 28.024 281.031 56.312 M126.236 37.282 C 126.041 37.597,129.241 42.718,130.287 43.765 C 131.338 44.817,131.898 44.944,135.510 44.944 C 139.458 44.944,139.421 44.763,136.138 48.003 C 134.675 49.447,133.098 51.163,132.635 51.818 L 131.791 53.007 131.711 63.274 C 131.651 70.860,131.711 73.638,131.941 73.915 C 132.333 74.387,150.680 74.466,153.223 74.006 C 159.747 72.827,163.056 69.354,163.323 63.404 C 163.520 59.024,162.927 57.726,159.723 55.525 L 158.837 54.917 159.945 53.975 C 162.777 51.566,163.660 46.642,161.920 42.964 C 160.604 40.182,156.373 37.232,153.798 37.299 C 153.069 37.319,153.144 37.371,154.303 37.652 C 159.602 38.937,162.086 41.970,162.274 47.382 L 162.382 50.482 161.414 51.800 C 160.882 52.525,159.977 53.490,159.404 53.944 C 158.108 54.970,158.107 54.962,159.549 55.872 C 160.201 56.284,161.212 57.164,161.795 57.826 L 162.855 59.030 162.855 62.530 C 162.855 67.157,162.003 69.185,159.229 71.163 C 155.778 73.624,154.896 73.761,142.485 73.761 L 132.188 73.761 132.188 63.572 C 132.188 51.462,131.820 52.798,136.399 48.253 C 138.154 46.510,139.590 44.993,139.590 44.882 C 139.590 44.771,138.061 44.679,136.193 44.679 C 132.597 44.679,131.312 44.415,130.510 43.511 C 129.770 42.676,126.636 37.853,126.636 37.549 C 126.636 37.374,131.166 37.257,139.788 37.211 L 152.941 37.140 139.672 37.076 C 130.863 37.034,126.347 37.103,126.236 37.282 M172.697 38.326 C 169.878 40.682,170.136 38.845,170.052 57.174 C 170.001 68.166,170.067 73.403,170.259 73.763 C 170.558 74.321,197.628 74.612,198.487 74.067 C 198.742 73.905,198.807 72.913,198.752 70.039 L 198.678 66.226 189.351 66.157 L 180.024 66.087 180.098 62.720 L 180.172 59.352 188.139 59.282 L 196.107 59.212 196.265 58.621 C 196.498 57.755,196.458 52.798,196.215 52.416 C 196.060 52.172,194.020 52.072,188.090 52.020 L 180.172 51.950 180.172 48.513 L 180.172 45.076 189.425 44.944 L 198.678 44.812 198.678 40.978 L 198.678 37.145 186.477 37.076 L 174.276 37.007 172.697 38.326 M208.785 38.188 C 207.980 38.843,207.042 39.829,206.701 40.377 L 206.081 41.375 206.007 57.306 C 205.956 68.207,206.022 73.403,206.214 73.763 C 206.513 74.321,233.055 74.612,233.914 74.067 C 234.168 73.905,234.234 72.913,234.178 70.039 L 234.104 66.226 225.116 66.094 L 216.127 65.962 215.995 51.553 L 215.863 37.145 213.055 37.070 L 210.248 36.995 208.785 38.188 M244.104 37.856 C 240.790 40.681,241.083 38.677,241.170 57.898 L 241.243 74.157 254.594 74.231 C 261.937 74.271,268.215 74.238,268.546 74.158 C 269.143 74.013,269.148 73.978,269.075 70.119 L 269.002 66.226 260.079 66.156 C 255.172 66.118,251.129 66.059,251.096 66.024 C 251.063 65.990,250.974 59.478,250.898 51.553 L 250.760 37.145 247.937 37.070 L 245.114 36.995 244.104 37.856 M198.414 40.978 L 198.414 44.547 189.161 44.679 L 179.907 44.812 179.907 48.513 L 179.907 52.214 187.839 52.346 L 195.770 52.479 195.844 55.713 L 195.918 58.948 187.913 59.018 L 179.907 59.088 179.834 62.723 L 179.760 66.358 189.016 66.358 L 198.271 66.358 198.419 66.953 C 198.501 67.280,198.533 68.916,198.490 70.588 L 198.414 73.629 184.468 73.697 L 170.522 73.765 170.522 57.543 L 170.522 41.321 171.117 40.438 C 171.444 39.953,172.342 39.042,173.113 38.414 L 174.514 37.272 186.464 37.340 L 198.414 37.409 198.414 40.978 M215.667 51.884 L 215.735 66.358 224.716 66.358 L 233.698 66.358 233.846 66.953 C 233.927 67.280,233.959 68.916,233.917 70.588 L 233.840 73.629 220.093 73.629 L 206.345 73.629 206.345 57.614 L 206.345 41.600 207.071 40.503 C 207.471 39.899,208.409 38.922,209.156 38.332 L 210.513 37.259 213.056 37.334 L 215.598 37.409 215.667 51.884 M250.628 51.818 L 250.760 66.226 259.749 66.358 L 268.738 66.490 268.738 70.059 L 268.738 73.629 255.056 73.697 L 241.375 73.765 241.376 57.570 C 241.378 39.085,241.138 40.900,243.904 38.539 L 245.405 37.259 247.950 37.334 L 250.496 37.409 250.628 51.818 M142.092 45.005 C 142.016 45.205,141.986 46.909,142.027 48.791 L 142.102 52.214 146.067 52.289 C 150.625 52.375,151.740 52.106,153.061 50.602 C 154.579 48.873,153.930 46.614,151.583 45.451 C 150.002 44.667,142.360 44.308,142.092 45.005 M150.961 45.553 C 154.529 47.099,154.112 50.996,150.292 51.815 C 149.563 51.971,147.482 52.066,145.667 52.024 L 142.366 51.950 142.291 48.793 C 142.250 47.056,142.282 45.464,142.363 45.253 C 142.568 44.720,149.603 44.965,150.961 45.553 M142.146 58.603 C 142.049 58.700,141.970 60.485,141.970 62.569 L 141.970 66.358 146.398 66.352 C 150.121 66.348,150.996 66.269,151.895 65.861 C 155.326 64.303,155.280 60.412,151.813 58.925 C 150.636 58.421,142.596 58.153,142.146 58.603 M151.942 59.291 C 153.478 60.127,153.866 60.753,153.866 62.393 C 153.866 65.291,152.611 65.928,146.662 66.049 L 142.234 66.138 142.234 62.591 C 142.234 60.640,142.323 58.955,142.432 58.846 C 142.860 58.417,151.040 58.800,151.942 59.291 M114.475 122.369 L 114.475 154.058 115.229 155.879 C 119.824 166.964,129.423 180.910,141.316 193.781 C 142.193 194.729,143.225 195.922,143.609 196.431 C 145.540 198.989,160.470 213.530,165.896 218.137 C 166.477 218.631,167.072 219.163,167.217 219.320 C 168.248 220.432,182.675 232.400,185.995 234.898 C 187.154 235.770,188.163 236.547,188.235 236.625 C 188.566 236.978,195.858 242.390,196.377 242.668 C 197.112 243.061,197.114 242.922,196.415 240.317 C 195.405 236.559,194.789 232.720,194.061 225.644 C 193.818 223.287,193.817 223.295,193.927 226.570 C 193.988 228.387,194.152 230.529,194.290 231.328 C 194.429 232.128,194.679 233.615,194.846 234.633 C 195.203 236.808,195.847 239.822,196.220 241.062 C 196.365 241.544,196.419 242.004,196.340 242.083 C 196.226 242.196,189.393 237.205,187.251 235.444 C 186.993 235.231,185.711 234.214,184.402 233.183 C 180.520 230.126,180.314 229.960,177.762 227.852 C 175.478 225.965,172.506 223.454,170.650 221.842 C 170.212 221.462,168.963 220.377,167.875 219.432 C 166.787 218.486,165.420 217.276,164.839 216.742 C 164.257 216.208,163.499 215.528,163.154 215.230 C 159.008 211.644,145.339 198.160,143.921 196.257 C 143.505 195.698,142.611 194.646,141.934 193.919 C 129.978 181.068,119.596 165.980,115.433 155.408 L 114.739 153.644 114.739 122.295 L 114.739 90.945 149.174 90.950 L 183.609 90.955 185.988 92.302 C 187.297 93.043,188.843 93.920,189.425 94.251 C 190.795 95.031,193.000 96.277,194.911 97.351 C 196.212 98.082,196.896 98.872,196.233 98.878 C 196.124 98.879,195.737 99.317,195.373 99.851 C 195.010 100.384,194.589 100.949,194.439 101.105 C 194.289 101.260,193.550 102.221,192.798 103.239 C 192.047 104.256,191.284 105.258,191.103 105.465 C 188.746 108.158,187.635 111.738,188.830 112.792 C 190.053 113.869,190.653 113.946,197.900 113.946 C 210.295 113.946,210.563 112.964,201.406 101.124 C 199.187 98.254,199.194 98.309,200.925 97.357 C 203.593 95.891,204.519 95.365,204.759 95.183 C 204.904 95.072,205.558 94.685,206.213 94.323 C 206.867 93.960,207.819 93.428,208.328 93.141 C 208.837 92.853,209.931 92.241,210.759 91.781 L 212.265 90.945 246.651 90.945 L 281.037 90.945 280.968 122.736 L 280.899 154.527 280.268 155.849 C 276.433 163.885,276.080 164.545,272.840 169.729 C 268.995 175.880,262.132 184.764,255.683 191.937 C 254.702 193.027,252.969 194.990,251.831 196.299 C 246.909 201.959,234.077 214.227,224.308 222.611 C 216.311 229.474,199.787 242.439,199.457 242.109 C 199.390 242.042,199.637 240.809,200.007 239.368 C 202.059 231.369,202.453 224.728,202.728 193.523 C 202.935 170.012,202.810 171.694,204.494 169.787 C 205.288 168.889,205.921 167.912,205.939 167.558 C 205.944 167.455,205.056 166.711,203.966 165.904 C 201.608 164.160,201.569 163.960,203.371 162.842 C 204.134 162.368,205.519 161.497,206.449 160.908 C 208.716 159.470,209.697 157.813,208.790 156.952 C 208.283 156.469,204.148 152.851,202.243 151.223 C 201.308 150.423,200.050 149.323,199.449 148.777 C 198.847 148.232,198.154 147.786,197.908 147.786 C 197.453 147.786,186.977 156.831,186.751 157.419 C 186.253 158.716,187.763 160.111,192.943 163.140 C 194.248 163.903,194.020 164.536,191.952 165.885 C 189.699 167.356,189.581 167.866,191.106 169.537 C 192.981 171.592,192.841 169.969,193.064 192.201 C 193.253 211.131,193.481 222.740,193.658 222.553 C 193.700 222.508,193.653 211.229,193.554 197.488 C 193.351 169.527,193.507 171.579,191.405 169.298 C 190.024 167.800,190.064 167.564,191.908 166.311 C 194.887 164.288,194.924 163.590,192.122 162.227 C 188.827 160.624,186.564 158.342,187.251 157.313 C 187.491 156.953,196.741 148.821,197.612 148.203 C 197.860 148.027,199.305 149.138,202.775 152.169 C 205.426 154.484,207.900 156.628,208.274 156.934 C 209.583 158.004,208.608 159.274,204.627 161.681 C 200.975 163.888,200.917 164.129,203.569 166.064 C 205.751 167.656,205.754 167.672,204.264 169.500 C 202.438 171.742,202.536 170.365,202.249 197.977 C 202.047 217.413,201.893 224.092,201.574 227.186 C 200.963 233.108,200.264 237.303,199.353 240.512 C 199.055 241.565,198.810 242.487,198.810 242.561 C 198.810 243.038,199.912 242.439,202.294 240.667 C 205.089 238.589,214.435 231.352,214.673 231.082 C 214.746 230.999,215.757 230.159,216.920 229.213 C 219.726 226.934,220.153 226.581,221.263 225.625 C 221.783 225.178,223.040 224.118,224.058 223.270 C 227.108 220.730,233.225 215.253,237.933 210.848 C 241.524 207.489,252.479 196.432,252.479 196.167 C 252.479 196.035,252.746 195.648,253.073 195.308 C 255.192 193.104,259.035 188.749,260.830 186.517 C 261.532 185.644,262.180 184.871,262.271 184.798 C 265.764 182.011,277.959 162.732,280.587 155.844 L 281.295 153.987 281.295 122.334 L 281.295 90.681 246.608 90.681 L 211.920 90.681 205.603 94.296 C 198.623 98.291,198.685 98.235,199.789 99.617 C 210.097 112.527,209.960 113.681,198.117 113.681 C 186.223 113.681,185.921 112.847,193.982 102.268 C 196.146 99.428,196.740 98.477,196.544 98.167 C 196.351 97.861,189.713 93.853,189.399 93.853 C 189.364 93.853,188.127 93.139,186.649 92.267 L 183.962 90.681 149.218 90.681 L 114.475 90.681 114.475 122.369 M120.438 104.669 C 120.064 105.273,121.768 108.549,123.199 109.980 C 124.132 110.913,125.787 111.865,130.866 114.389 C 163.190 130.457,158.086 128.755,174.487 128.934 C 188.472 129.087,189.186 129.268,183.146 131.130 C 181.219 131.724,179.167 132.369,178.586 132.563 C 178.004 132.757,176.457 133.241,175.149 133.639 C 173.840 134.037,172.115 134.573,171.315 134.832 C 170.516 135.090,168.790 135.619,167.482 136.007 C 166.173 136.395,164.896 136.824,164.643 136.961 C 164.391 137.099,164.039 137.211,163.862 137.211 C 163.685 137.211,162.285 137.615,160.752 138.110 C 157.966 139.008,153.450 140.422,146.728 142.500 C 142.053 143.946,139.957 144.601,138.665 145.020 C 138.083 145.208,136.180 145.793,134.435 146.319 C 132.690 146.845,131.056 147.390,130.803 147.531 C 130.551 147.671,130.188 147.786,129.996 147.786 C 129.804 147.786,128.405 148.185,126.886 148.672 C 125.367 149.160,123.410 149.771,122.538 150.031 C 119.807 150.843,119.772 150.982,121.760 153.067 C 124.516 155.957,122.375 155.750,148.518 155.652 C 173.859 155.557,173.493 155.582,178.189 153.586 C 180.272 152.701,189.814 146.422,190.615 145.409 C 190.687 145.318,191.526 144.691,192.479 144.017 C 195.075 142.180,194.977 142.596,194.977 133.402 L 194.977 125.446 194.188 123.860 C 192.231 119.924,187.758 117.229,181.056 115.949 C 179.843 115.717,178.255 115.410,177.528 115.267 C 176.801 115.124,174.600 114.709,172.637 114.346 C 170.674 113.982,168.533 113.567,167.878 113.423 C 166.657 113.154,161.538 112.193,159.418 111.834 C 158.193 111.627,153.430 110.718,151.091 110.245 C 150.364 110.098,148.163 109.677,146.200 109.309 C 142.594 108.633,140.704 108.272,138.533 107.844 C 136.405 107.425,133.415 106.861,131.659 106.549 C 130.714 106.381,129.465 106.137,128.883 106.006 C 128.301 105.876,126.755 105.582,125.446 105.353 C 124.137 105.123,122.637 104.822,122.111 104.682 C 120.922 104.367,120.626 104.364,120.438 104.669 M273.629 104.710 C 273.120 104.834,271.038 105.247,269.002 105.626 C 266.966 106.005,264.171 106.537,262.789 106.809 C 261.408 107.080,259.207 107.496,257.898 107.733 C 256.590 107.970,254.983 108.276,254.329 108.413 C 253.675 108.550,251.533 108.957,249.570 109.317 C 247.607 109.678,245.406 110.094,244.679 110.242 C 242.536 110.680,237.637 111.617,236.352 111.834 C 233.798 112.266,229.029 113.165,228.024 113.404 C 227.442 113.542,225.301 113.959,223.265 114.330 C 221.229 114.700,218.969 115.123,218.242 115.269 C 217.515 115.414,215.968 115.715,214.805 115.937 C 207.807 117.271,203.797 119.728,201.656 123.992 L 200.793 125.711 200.793 133.528 C 200.793 142.828,200.533 142.077,204.813 145.142 C 214.799 152.294,216.521 153.350,220.093 154.521 C 223.175 155.531,223.983 155.564,247.171 155.652 C 272.407 155.747,271.165 155.831,273.278 153.892 C 275.942 151.448,276.004 150.902,273.695 150.178 C 272.713 149.870,271.196 149.391,270.324 149.114 C 269.451 148.836,267.132 148.117,265.169 147.516 C 263.206 146.914,260.945 146.207,260.145 145.945 C 259.346 145.682,257.323 145.046,255.651 144.530 C 253.979 144.014,250.648 142.979,248.249 142.229 C 245.849 141.479,243.470 140.738,242.961 140.584 C 242.452 140.429,241.560 140.147,240.978 139.958 C 240.397 139.769,238.136 139.065,235.955 138.395 C 233.774 137.725,231.692 137.075,231.328 136.950 C 230.965 136.825,229.597 136.403,228.288 136.012 C 226.980 135.621,225.254 135.086,224.455 134.823 C 223.655 134.560,221.395 133.852,219.432 133.250 C 217.469 132.648,215.565 132.052,215.202 131.925 C 214.838 131.799,213.321 131.316,211.831 130.852 C 210.340 130.389,209.121 129.919,209.121 129.809 C 209.121 129.138,210.345 129.051,221.153 128.949 C 237.085 128.798,234.464 129.558,255.977 118.855 C 273.490 110.141,272.965 110.475,274.722 106.907 C 275.857 104.602,275.662 104.211,273.629 104.710 M123.331 105.327 C 124.494 105.525,126.398 105.880,127.561 106.115 C 129.812 106.571,131.801 106.953,136.682 107.867 C 138.354 108.180,141.210 108.724,143.027 109.076 C 146.792 109.805,147.565 109.951,152.677 110.898 C 154.712 111.275,157.211 111.755,158.229 111.964 C 160.045 112.337,161.931 112.692,169.332 114.056 C 171.368 114.431,173.569 114.854,174.223 114.996 C 174.878 115.137,176.424 115.444,177.660 115.677 C 184.368 116.942,185.886 117.376,188.617 118.807 C 193.883 121.566,194.942 124.323,194.799 134.897 C 194.698 142.365,194.890 141.795,191.672 144.180 C 180.064 152.782,178.374 153.724,172.637 154.805 C 169.357 155.422,125.500 155.340,124.357 154.715 C 121.969 153.408,119.994 150.695,121.430 150.694 C 121.603 150.694,123.054 150.280,124.653 149.774 C 128.391 148.592,128.491 148.561,132.716 147.252 C 134.679 146.645,137.356 145.812,138.665 145.402 C 139.974 144.992,143.007 144.042,145.406 143.291 C 147.806 142.540,150.245 141.772,150.826 141.584 C 151.836 141.257,153.249 140.826,157.964 139.407 C 159.128 139.057,160.286 138.658,160.538 138.520 C 160.791 138.381,161.133 138.268,161.298 138.268 C 161.463 138.268,163.338 137.721,165.465 137.051 C 167.592 136.381,171.236 135.241,173.562 134.516 C 175.889 133.792,178.447 132.983,179.247 132.719 C 180.046 132.455,181.771 131.925,183.080 131.541 C 187.279 130.310,187.777 129.949,186.463 129.087 C 185.816 128.663,184.623 128.602,173.971 128.446 C 157.847 128.210,161.856 129.454,136.555 116.836 C 123.531 110.341,122.964 109.971,121.540 107.046 C 120.808 105.542,120.661 104.953,121.018 104.962 C 121.127 104.965,122.168 105.129,123.331 105.327 M275.215 105.068 C 275.215 105.604,273.160 109.015,272.376 109.780 C 271.041 111.084,240.730 126.272,237.409 127.301 C 234.535 128.192,233.412 128.275,221.799 128.445 C 211.149 128.602,209.954 128.663,209.307 129.087 C 207.998 129.945,208.423 130.252,212.690 131.533 C 213.999 131.926,215.724 132.463,216.523 132.726 C 217.323 132.989,219.405 133.641,221.150 134.175 C 225.269 135.436,232.597 137.714,233.443 137.997 C 233.807 138.119,235.175 138.542,236.484 138.938 C 237.792 139.334,239.518 139.871,240.317 140.131 C 241.787 140.611,247.468 142.378,250.628 143.339 C 251.573 143.626,252.644 143.964,253.007 144.089 C 253.371 144.214,255.274 144.809,257.237 145.411 C 259.200 146.014,261.461 146.721,262.260 146.984 C 263.060 147.247,264.785 147.787,266.094 148.183 C 267.403 148.579,269.728 149.306,271.261 149.799 C 272.794 150.291,274.177 150.694,274.335 150.694 C 275.832 150.694,273.485 153.896,271.326 154.798 C 269.945 155.375,226.125 155.381,223.113 154.805 C 217.716 153.772,214.719 152.115,205.040 144.812 C 200.717 141.550,201.056 142.511,201.065 133.555 L 201.072 125.975 201.787 124.433 C 203.819 120.050,207.845 117.605,215.334 116.204 C 216.642 115.960,218.546 115.585,219.564 115.372 C 220.582 115.159,222.158 114.870,223.066 114.731 C 223.974 114.591,225.818 114.248,227.164 113.967 C 228.509 113.687,230.978 113.206,232.650 112.898 C 235.584 112.358,236.560 112.172,242.300 111.057 C 243.754 110.774,246.015 110.350,247.323 110.114 C 248.632 109.877,250.238 109.576,250.892 109.445 C 251.547 109.313,254.342 108.778,257.105 108.257 C 259.868 107.736,262.961 107.146,263.979 106.945 C 264.997 106.745,267.436 106.280,269.399 105.912 C 271.362 105.545,273.206 105.193,273.496 105.131 C 274.243 104.972,275.215 104.936,275.215 105.068 M286.092 157.634 C 285.897 158.106,285.550 158.909,285.323 159.418 C 285.095 159.927,284.909 160.492,284.909 160.674 C 284.909 160.856,284.809 161.005,284.688 161.005 C 284.567 161.005,284.468 161.183,284.468 161.401 C 284.468 161.619,284.583 161.798,284.723 161.798 C 285.094 161.798,285.525 160.882,285.525 160.097 C 285.525 159.724,285.644 159.418,285.790 159.418 C 285.935 159.418,286.054 159.180,286.054 158.890 C 286.054 158.599,286.186 158.361,286.347 158.361 C 286.508 158.361,286.569 158.178,286.484 157.954 C 286.395 157.723,286.496 157.483,286.720 157.397 C 287.197 157.214,287.239 156.775,286.780 156.775 C 286.597 156.775,286.288 157.161,286.092 157.634 M110.773 161.269 C 110.773 161.414,110.906 161.533,111.069 161.533 C 111.234 161.533,111.303 161.767,111.225 162.062 C 111.132 162.419,111.217 162.591,111.487 162.591 C 111.734 162.591,111.829 162.743,111.735 162.987 C 111.651 163.206,111.698 163.384,111.839 163.384 C 111.980 163.384,112.095 163.622,112.095 163.913 C 112.095 164.204,112.204 164.442,112.336 164.442 C 112.469 164.442,112.657 164.912,112.754 165.488 C 112.873 166.189,113.099 166.588,113.438 166.695 C 113.717 166.784,113.946 167.086,113.946 167.367 C 113.946 167.648,114.065 167.878,114.210 167.878 C 114.356 167.878,114.475 168.057,114.475 168.275 C 114.475 168.493,114.606 168.672,114.767 168.672 C 114.928 168.672,114.987 168.861,114.898 169.093 C 114.795 169.362,115.024 169.784,115.531 170.257 C 115.968 170.665,116.325 171.252,116.325 171.562 C 116.325 171.872,116.504 172.193,116.722 172.277 C 116.940 172.361,117.118 172.569,117.118 172.739 C 117.118 172.910,117.356 173.221,117.647 173.430 C 117.938 173.640,118.176 174.023,118.176 174.282 C 118.176 174.540,118.287 174.752,118.422 174.752 C 118.558 174.752,118.753 175.020,118.857 175.347 C 118.960 175.674,119.265 176.134,119.536 176.369 C 119.806 176.605,120.026 176.995,120.026 177.237 C 120.026 177.479,120.205 177.745,120.423 177.829 C 120.641 177.913,120.820 178.198,120.820 178.464 C 120.820 178.729,121.051 179.020,121.335 179.110 C 121.618 179.200,121.933 179.535,122.034 179.855 C 122.135 180.175,122.438 180.592,122.708 180.782 C 122.978 180.972,123.199 181.345,123.199 181.610 C 123.199 181.876,123.496 182.289,123.860 182.527 C 124.223 182.765,124.521 183.134,124.521 183.347 C 124.521 183.868,125.341 184.798,125.800 184.798 C 126.030 184.798,126.120 184.984,126.039 185.293 C 125.960 185.597,126.114 185.928,126.438 186.152 C 127.367 186.795,127.693 187.203,127.693 187.725 C 127.693 188.006,127.794 188.235,127.917 188.235 C 128.298 188.235,129.544 189.423,129.544 189.787 C 129.544 189.976,130.198 190.760,130.998 191.529 C 131.798 192.297,132.452 193.103,132.452 193.319 C 132.452 193.536,132.764 193.938,133.146 194.213 C 134.154 194.938,135.096 195.888,135.096 196.178 C 135.096 196.316,135.512 196.871,136.021 197.411 C 136.530 197.950,136.946 198.491,136.946 198.612 C 136.946 198.999,137.185 199.251,140.846 202.730 C 142.046 203.870,143.027 205.001,143.027 205.244 C 143.027 205.486,143.206 205.684,143.424 205.684 C 143.642 205.684,143.820 205.863,143.820 206.081 C 143.820 206.301,144.055 206.477,144.349 206.477 C 144.668 206.477,144.878 206.653,144.878 206.922 C 144.878 207.391,147.330 209.914,147.785 209.914 C 147.931 209.914,148.050 210.093,148.050 210.311 C 148.050 210.529,148.215 210.707,148.416 210.707 C 148.617 210.707,148.847 210.957,148.927 211.263 C 149.007 211.568,149.194 211.742,149.343 211.650 C 149.557 211.518,152.632 214.399,154.586 216.562 C 154.764 216.759,155.035 217.039,155.188 217.184 C 155.341 217.330,155.671 217.688,155.922 217.981 C 156.173 218.274,156.877 218.836,157.487 219.231 C 158.525 219.902,159.632 220.933,160.872 222.383 C 161.163 222.723,161.836 223.230,162.368 223.510 C 162.900 223.790,163.495 224.260,163.690 224.554 C 164.323 225.506,165.676 226.834,166.013 226.834 C 166.193 226.834,166.643 227.072,167.013 227.363 C 167.383 227.654,167.609 227.892,167.515 227.892 C 167.422 227.892,167.664 228.249,168.052 228.685 C 168.441 229.121,168.933 229.478,169.147 229.478 C 169.538 229.478,170.522 230.440,170.522 230.822 C 170.522 230.936,170.790 231.112,171.117 231.214 C 171.444 231.316,172.219 231.919,172.839 232.554 C 173.459 233.189,174.123 233.708,174.313 233.708 C 174.504 233.708,175.007 234.124,175.432 234.633 C 175.856 235.142,176.425 235.558,176.696 235.558 C 177.032 235.558,177.138 235.688,177.031 235.969 C 176.940 236.204,176.985 236.310,177.135 236.218 C 177.278 236.129,177.396 236.174,177.396 236.318 C 177.396 236.462,177.628 236.654,177.911 236.744 C 178.195 236.834,178.505 237.155,178.601 237.458 C 178.722 237.840,178.836 237.909,178.975 237.685 C 179.185 237.346,180.568 238.495,180.568 239.007 C 180.568 239.146,180.717 239.260,180.899 239.260 C 181.081 239.260,181.697 239.676,182.269 240.185 C 182.840 240.694,183.411 241.110,183.537 241.110 C 183.663 241.110,184.042 241.408,184.379 241.771 C 184.716 242.135,185.178 242.432,185.406 242.432 C 185.634 242.432,185.896 242.670,185.988 242.960 C 186.080 243.251,186.475 243.567,186.865 243.664 C 187.578 243.840,188.500 244.675,188.500 245.145 C 188.500 245.283,188.692 245.323,188.928 245.233 C 189.339 245.075,190.350 245.932,190.350 246.438 C 190.350 246.561,190.523 246.662,190.733 246.662 C 190.944 246.662,191.437 246.960,191.829 247.323 C 192.222 247.687,192.696 247.984,192.883 247.984 C 193.070 247.984,193.301 248.231,193.397 248.532 C 193.509 248.885,193.714 249.025,193.975 248.925 C 194.375 248.771,195.373 249.660,195.373 250.170 C 195.373 250.311,195.601 250.366,195.879 250.293 C 196.222 250.203,196.427 250.321,196.516 250.659 C 196.711 251.404,198.940 251.374,199.343 250.620 C 199.501 250.326,199.730 250.146,199.853 250.222 C 199.975 250.298,200.356 250.006,200.699 249.573 C 201.096 249.072,201.482 248.837,201.763 248.925 C 202.046 249.014,202.263 248.879,202.368 248.549 C 202.458 248.267,202.943 247.840,203.447 247.601 C 203.950 247.362,204.362 247.053,204.362 246.914 C 204.362 246.776,204.570 246.661,204.825 246.660 C 205.079 246.659,205.568 246.302,205.911 245.869 C 206.253 245.435,206.646 245.149,206.784 245.234 C 207.027 245.385,208.063 244.394,208.063 244.011 C 208.063 243.906,208.411 243.751,208.835 243.666 C 209.294 243.574,209.677 243.292,209.778 242.972 C 209.873 242.675,210.136 242.432,210.363 242.432 C 210.591 242.432,211.170 242.016,211.650 241.507 C 212.130 240.998,212.700 240.582,212.917 240.582 C 213.135 240.582,213.547 240.284,213.832 239.921 C 214.118 239.557,214.483 239.260,214.642 239.260 C 215.064 239.260,215.995 238.404,215.995 238.016 C 215.995 237.833,216.320 237.602,216.717 237.502 C 217.115 237.402,217.791 236.924,218.220 236.440 C 218.649 235.955,219.128 235.558,219.283 235.558 C 219.439 235.558,219.914 235.142,220.338 234.633 C 220.763 234.124,221.273 233.708,221.471 233.708 C 221.938 233.708,223.016 232.709,222.791 232.485 C 222.598 232.291,221.614 232.890,220.548 233.849 C 219.226 235.040,218.259 235.825,216.072 237.483 C 214.879 238.387,213.897 239.296,213.891 239.502 C 213.885 239.708,213.801 239.798,213.705 239.702 C 213.559 239.556,212.552 240.194,211.368 241.183 C 211.223 241.305,209.785 242.379,208.173 243.570 C 206.560 244.762,204.895 246.008,204.471 246.338 C 203.823 246.845,202.188 248.014,198.582 250.553 C 197.851 251.067,197.949 251.113,194.531 248.645 C 193.322 247.773,192.220 247.011,192.081 246.953 C 191.942 246.894,191.585 246.615,191.288 246.333 C 190.359 245.450,186.588 242.825,186.348 242.895 C 186.223 242.931,186.120 242.831,186.120 242.673 C 186.120 242.365,185.071 241.398,184.720 241.384 C 184.605 241.379,184.213 241.077,183.849 240.714 C 183.486 240.350,183.104 240.050,183.002 240.047 C 182.899 240.043,182.388 239.655,181.864 239.183 C 181.341 238.711,180.356 237.911,179.675 237.405 C 178.995 236.898,177.936 236.038,177.322 235.492 C 176.708 234.947,176.123 234.501,176.020 234.501 C 175.918 234.501,175.554 234.233,175.213 233.906 C 174.871 233.579,173.781 232.657,172.789 231.857 C 171.798 231.058,170.655 230.106,170.250 229.742 C 169.844 229.379,168.524 228.249,167.315 227.231 C 164.826 225.134,162.987 223.507,159.530 220.342 C 158.210 219.133,156.604 217.708,155.961 217.174 C 154.220 215.730,139.470 200.788,137.410 198.382 C 136.429 197.236,134.942 195.466,134.106 194.448 C 133.270 193.430,132.406 192.419,132.186 192.201 C 131.967 191.983,130.608 190.317,129.166 188.500 C 127.724 186.682,126.327 184.997,126.061 184.756 C 125.796 184.515,125.578 184.241,125.578 184.147 C 125.578 184.054,124.896 183.061,124.062 181.942 C 123.227 180.823,122.205 179.402,121.789 178.784 C 121.374 178.166,120.926 177.660,120.795 177.660 C 120.663 177.660,120.555 177.520,120.555 177.349 C 120.555 177.178,119.544 175.527,118.308 173.680 C 117.072 171.832,116.061 170.249,116.061 170.162 C 116.061 170.075,115.671 169.377,115.194 168.611 C 114.717 167.844,114.161 166.890,113.959 166.490 C 113.757 166.091,113.493 165.763,113.372 165.763 C 113.252 165.763,113.154 165.615,113.155 165.433 C 113.159 164.941,111.229 161.005,110.984 161.005 C 110.868 161.005,110.773 161.124,110.773 161.269 M283.838 162.525 C 283.748 162.779,283.605 163.136,283.520 163.318 C 283.432 163.508,283.544 163.648,283.785 163.648 C 284.027 163.648,284.204 163.426,284.204 163.120 C 284.204 162.829,284.323 162.591,284.468 162.591 C 284.613 162.591,284.732 162.472,284.732 162.327 C 284.732 161.876,284.010 162.036,283.838 162.525 M283.146 164.309 C 283.146 164.527,283.027 164.706,282.882 164.706 C 282.736 164.706,282.617 164.884,282.617 165.102 C 282.617 165.725,283.331 165.566,283.508 164.904 C 283.730 164.076,283.714 163.913,283.410 163.913 C 283.265 163.913,283.146 164.091,283.146 164.309 M281.480 167.083 C 280.647 168.625,280.638 168.672,281.175 168.672 C 281.399 168.672,281.565 168.523,281.543 168.341 C 281.463 167.685,281.892 166.835,282.381 166.680 C 282.944 166.501,283.069 165.763,282.537 165.763 C 282.348 165.763,281.872 166.357,281.480 167.083 M279.752 170.059 C 278.526 172.439,272.349 181.505,270.793 183.209 C 270.462 183.571,270.192 183.964,270.192 184.081 C 270.192 184.198,269.924 184.580,269.597 184.930 C 269.270 185.280,268.881 185.721,268.734 185.909 C 267.943 186.921,266.341 188.914,266.226 189.028 C 266.153 189.101,265.622 189.755,265.045 190.482 C 264.469 191.210,263.930 191.864,263.849 191.937 C 263.646 192.118,260.852 195.422,260.615 195.761 C 259.011 198.058,243.387 214.040,238.110 218.783 C 236.823 219.939,235.633 221.008,235.466 221.159 C 233.731 222.716,227.805 227.865,226.197 229.213 C 225.069 230.159,223.919 231.124,223.640 231.359 C 223.361 231.595,223.133 231.940,223.133 232.127 C 223.133 232.322,223.343 232.224,223.627 231.898 C 223.898 231.585,224.310 231.328,224.543 231.328 C 224.775 231.328,225.107 231.061,225.280 230.734 C 225.705 229.931,226.555 229.213,227.081 229.213 C 227.317 229.213,227.685 228.959,227.899 228.648 C 228.502 227.772,230.087 226.305,230.431 226.305 C 230.531 226.305,231.320 225.592,232.185 224.719 C 233.049 223.847,233.898 223.133,234.071 223.133 C 234.244 223.133,234.858 222.586,235.435 221.918 C 237.143 219.939,238.269 218.903,238.713 218.903 C 238.861 218.903,239.669 218.186,240.509 217.309 C 242.146 215.600,244.815 212.896,245.388 212.367 C 245.580 212.189,245.856 211.918,246.001 211.765 C 246.534 211.204,247.542 210.443,247.752 210.443 C 247.871 210.443,247.891 210.244,247.798 210.000 C 247.667 209.658,247.734 209.599,248.095 209.737 C 248.428 209.865,248.601 209.765,248.700 209.386 C 248.779 209.087,249.061 208.857,249.348 208.857 C 249.629 208.857,249.823 208.704,249.780 208.518 C 249.678 208.072,252.775 204.783,257.491 200.327 C 258.224 199.634,258.824 198.945,258.824 198.796 C 258.824 198.511,259.090 198.149,260.079 197.091 C 260.406 196.741,260.674 196.331,260.674 196.179 C 260.674 196.027,260.785 195.902,260.921 195.902 C 261.056 195.902,261.243 195.664,261.335 195.373 C 261.427 195.083,261.657 194.845,261.845 194.845 C 262.033 194.845,262.404 194.554,262.671 194.200 C 262.937 193.845,263.251 193.614,263.369 193.686 C 263.486 193.759,263.582 193.566,263.582 193.258 C 263.582 192.902,263.693 192.767,263.888 192.887 C 264.081 193.007,264.121 192.959,263.995 192.756 C 263.815 192.465,264.726 191.408,265.158 191.408 C 265.253 191.408,265.545 190.923,265.806 190.331 C 266.067 189.739,266.468 189.183,266.696 189.096 C 267.317 188.858,268.077 188.024,268.077 187.580 C 268.077 187.366,268.374 186.995,268.738 186.757 C 269.101 186.519,269.399 186.126,269.399 185.884 C 269.399 185.642,269.651 185.269,269.960 185.055 C 270.925 184.386,271.249 183.985,271.249 183.458 C 271.249 183.177,271.350 182.948,271.473 182.948 C 271.926 182.948,272.724 182.009,272.634 181.582 C 272.580 181.325,272.754 181.075,273.053 180.980 C 273.341 180.888,273.631 180.488,273.716 180.066 C 273.807 179.609,274.078 179.260,274.408 179.173 C 274.730 179.089,274.950 178.814,274.950 178.496 C 274.950 178.192,275.180 177.888,275.479 177.792 C 275.775 177.699,276.008 177.392,276.008 177.098 C 276.008 176.806,276.129 176.646,276.279 176.739 C 276.428 176.831,276.528 176.808,276.501 176.689 C 276.417 176.311,276.877 175.431,277.402 174.964 C 277.680 174.718,277.832 174.394,277.740 174.246 C 277.649 174.098,277.816 173.825,278.113 173.640 C 278.409 173.455,278.652 173.102,278.652 172.856 C 278.652 172.610,278.877 172.337,279.153 172.249 C 279.495 172.141,279.612 171.924,279.519 171.570 C 279.444 171.283,279.515 171.051,279.678 171.051 C 279.841 171.051,279.974 170.821,279.974 170.540 C 279.974 170.259,280.212 169.954,280.502 169.861 C 281.089 169.675,281.232 168.936,280.681 168.936 C 280.489 168.936,280.071 169.442,279.752 170.059 " stroke="none" fill="#000000" fill-rule="evenodd"></path></g></svg>