<svg id="svg" xmlns="http://www.w3.org/2000/svg" xmlns:xlink="http://www.w3.org/1999/xlink" width="400" height="225" viewBox="0, 0, 400,225" version="1.1"><g id="svgg"><path id="path0" d="M254.835 5.277 C 253.873 5.407,253.014 5.586,252.926 5.674 C 252.839 5.761,252.524 5.833,252.227 5.833 C 251.929 5.833,251.645 5.900,251.595 5.982 C 251.544 6.063,251.296 6.179,251.043 6.239 C 250.511 6.366,248.556 7.079,247.583 7.501 C 247.217 7.660,246.729 7.842,246.500 7.906 C 246.011 8.043,244.466 8.621,243.750 8.935 C 243.475 9.055,242.688 9.347,242.000 9.583 C 241.313 9.819,240.620 10.085,240.461 10.173 C 240.301 10.261,240.088 10.333,239.986 10.333 C 239.884 10.333,239.564 10.443,239.275 10.577 C 238.986 10.711,238.188 11.020,237.500 11.263 C 236.813 11.506,236.175 11.763,236.083 11.833 C 235.992 11.904,235.654 12.016,235.333 12.083 C 235.012 12.150,234.675 12.262,234.583 12.332 C 234.492 12.402,233.849 12.653,233.155 12.891 C 232.461 13.128,231.673 13.437,231.405 13.577 C 231.136 13.717,230.845 13.832,230.758 13.832 C 230.608 13.833,227.794 14.863,227.083 15.177 C 226.900 15.258,226.450 15.429,226.083 15.556 C 224.459 16.121,222.903 16.715,222.750 16.830 C 222.658 16.898,222.133 17.089,221.583 17.253 C 221.033 17.418,220.512 17.616,220.425 17.693 C 220.338 17.770,220.162 17.833,220.034 17.833 C 219.905 17.833,219.545 17.946,219.234 18.083 C 218.922 18.221,218.412 18.446,218.100 18.583 C 217.788 18.721,217.471 18.833,217.396 18.833 C 217.247 18.833,215.241 19.571,214.401 19.935 C 214.117 20.057,213.217 20.392,212.401 20.678 C 211.585 20.964,210.692 21.296,210.417 21.415 C 209.566 21.783,206.741 22.833,206.600 22.833 C 206.527 22.833,206.231 22.943,205.942 23.077 C 205.653 23.211,204.854 23.519,204.167 23.761 C 203.479 24.004,202.845 24.269,202.758 24.351 C 202.671 24.433,202.484 24.500,202.342 24.501 C 202.200 24.502,201.886 24.605,201.645 24.731 C 201.405 24.856,200.580 25.165,199.812 25.417 C 199.045 25.669,198.345 25.940,198.258 26.021 C 198.171 26.101,197.984 26.167,197.842 26.168 C 197.700 26.168,197.396 26.266,197.167 26.385 C 196.938 26.504,196.112 26.821,195.333 27.088 C 194.554 27.355,193.879 27.623,193.833 27.683 C 193.787 27.742,193.487 27.847,193.167 27.915 C 192.846 27.983,192.508 28.095,192.417 28.164 C 192.325 28.233,191.838 28.422,191.333 28.584 C 190.829 28.747,190.117 29.015,189.750 29.181 C 189.066 29.490,187.473 30.075,186.583 30.344 C 186.308 30.427,185.933 30.561,185.750 30.642 C 185.567 30.723,185.229 30.870,185.000 30.970 C 184.543 31.168,180.811 32.552,178.833 33.257 C 178.146 33.501,177.358 33.796,177.083 33.912 C 176.104 34.322,175.240 34.649,174.583 34.858 C 174.217 34.974,173.842 35.120,173.750 35.182 C 173.658 35.244,173.340 35.347,173.042 35.411 C 172.744 35.474,172.500 35.587,172.500 35.660 C 172.500 35.734,172.331 35.832,172.125 35.877 C 171.546 36.004,168.094 37.237,168.000 37.350 C 167.954 37.405,167.279 37.658,166.500 37.913 C 165.721 38.167,165.012 38.440,164.925 38.521 C 164.838 38.601,164.650 38.667,164.508 38.668 C 164.366 38.668,164.063 38.766,163.833 38.885 C 163.604 39.004,162.779 39.321,162.000 39.588 C 161.221 39.855,160.546 40.123,160.500 40.183 C 160.454 40.242,160.154 40.347,159.833 40.415 C 159.512 40.483,159.175 40.595,159.083 40.664 C 158.992 40.733,158.504 40.922,158.000 41.084 C 157.496 41.247,156.783 41.516,156.417 41.682 C 155.760 41.980,155.388 42.119,153.083 42.929 C 152.442 43.154,151.680 43.450,151.391 43.586 C 151.103 43.722,150.802 43.833,150.724 43.833 C 150.572 43.833,147.813 44.888,147.250 45.162 C 147.067 45.250,146.242 45.551,145.417 45.828 C 144.592 46.106,143.767 46.401,143.583 46.483 C 142.621 46.915,141.953 47.170,140.667 47.596 C 139.887 47.854,139.212 48.109,139.167 48.162 C 139.077 48.268,136.312 49.262,135.292 49.556 C 134.948 49.655,134.667 49.795,134.667 49.868 C 134.667 49.940,134.581 50.000,134.477 50.000 C 134.241 50.000,131.447 51.329,131.333 51.495 C 131.287 51.562,130.929 51.818,130.538 52.063 C 129.169 52.920,126.766 55.180,125.732 56.583 C 125.326 57.133,124.882 57.732,124.744 57.913 C 124.607 58.094,124.214 58.806,123.872 59.496 C 123.530 60.186,123.210 60.788,123.161 60.833 C 123.009 60.976,122.198 63.220,122.077 63.833 C 122.013 64.154,121.904 64.492,121.833 64.583 C 121.762 64.675,121.663 65.050,121.612 65.417 C 121.561 65.783,121.434 66.571,121.330 67.167 C 121.098 68.485,121.216 73.449,121.485 73.718 C 121.585 73.818,121.667 74.099,121.667 74.342 C 121.667 74.585,121.736 75.001,121.820 75.267 C 121.904 75.533,122.104 76.200,122.264 76.750 C 122.424 77.300,122.607 77.825,122.671 77.917 C 122.735 78.008,122.841 78.308,122.907 78.582 C 122.973 78.856,123.077 79.118,123.138 79.165 C 123.200 79.212,123.470 79.719,123.739 80.292 C 124.008 80.865,124.289 81.333,124.364 81.333 C 124.439 81.333,124.500 81.440,124.500 81.571 C 124.500 81.702,124.599 81.909,124.719 82.030 C 124.840 82.151,125.084 82.475,125.261 82.750 C 126.182 84.178,129.003 86.959,130.417 87.834 C 130.743 88.035,131.101 88.287,131.213 88.394 C 131.473 88.642,134.216 90.000,134.457 90.000 C 134.557 90.000,134.664 90.060,134.694 90.134 C 134.779 90.336,137.051 90.959,138.833 91.269 C 141.544 91.740,145.081 91.596,147.583 90.912 C 149.247 90.458,149.753 90.296,149.917 90.166 C 150.008 90.094,150.683 89.830,151.417 89.580 C 152.150 89.330,152.825 89.069,152.917 88.999 C 153.008 88.929,153.346 88.817,153.667 88.750 C 153.987 88.683,154.325 88.573,154.417 88.505 C 154.508 88.437,155.146 88.178,155.833 87.930 C 156.521 87.682,157.214 87.409,157.373 87.323 C 157.532 87.237,157.746 87.167,157.848 87.167 C 157.950 87.167,158.307 87.047,158.641 86.900 C 159.468 86.537,159.689 86.452,161.417 85.830 C 162.242 85.534,163.227 85.154,163.607 84.987 C 163.986 84.819,164.511 84.630,164.773 84.567 C 165.035 84.504,165.550 84.322,165.917 84.164 C 166.283 84.005,167.446 83.558,168.500 83.171 C 169.554 82.783,170.653 82.362,170.942 82.233 C 171.231 82.105,171.550 82.000,171.652 82.000 C 171.754 82.000,171.968 81.930,172.127 81.845 C 172.517 81.636,177.739 79.667,177.903 79.667 C 177.975 79.667,178.307 79.547,178.641 79.400 C 179.471 79.036,179.641 78.970,181.833 78.168 C 182.887 77.782,183.975 77.373,184.250 77.258 C 184.525 77.144,185.012 76.956,185.333 76.842 C 185.654 76.727,186.067 76.571,186.250 76.496 C 186.433 76.421,186.808 76.310,187.082 76.250 C 187.356 76.190,187.618 76.089,187.665 76.027 C 187.744 75.923,188.472 75.642,190.833 74.807 C 191.338 74.628,191.975 74.380,192.250 74.255 C 192.525 74.130,193.237 73.865,193.833 73.665 C 194.429 73.466,194.992 73.243,195.083 73.171 C 195.175 73.098,195.512 72.984,195.833 72.917 C 196.154 72.850,196.492 72.739,196.583 72.671 C 196.675 72.603,197.125 72.416,197.583 72.256 C 198.564 71.913,198.876 71.792,199.692 71.434 C 200.027 71.287,200.360 71.167,200.433 71.167 C 200.578 71.167,204.754 69.601,205.632 69.218 C 205.933 69.086,206.571 68.863,207.048 68.722 C 207.526 68.581,208.104 68.368,208.333 68.249 C 208.563 68.130,209.425 67.792,210.250 67.498 C 211.961 66.888,212.186 66.802,213.025 66.434 C 213.360 66.287,213.703 66.167,213.788 66.167 C 213.927 66.167,215.565 65.548,216.417 65.173 C 216.600 65.093,217.313 64.829,218.000 64.586 C 218.688 64.344,219.380 64.076,219.539 63.990 C 219.699 63.904,219.912 63.833,220.014 63.833 C 220.116 63.833,220.436 63.728,220.725 63.600 C 221.014 63.472,222.112 63.050,223.167 62.663 C 224.221 62.276,225.308 61.862,225.583 61.743 C 225.858 61.625,226.571 61.365,227.167 61.165 C 227.762 60.966,228.325 60.742,228.417 60.666 C 228.508 60.591,228.865 60.477,229.208 60.413 C 229.552 60.349,229.833 60.230,229.833 60.148 C 229.833 60.067,229.925 60.000,230.038 60.000 C 230.268 60.000,232.426 59.231,232.873 58.990 C 233.032 58.904,233.246 58.833,233.348 58.833 C 233.450 58.833,233.769 58.724,234.058 58.590 C 234.347 58.456,235.146 58.147,235.833 57.904 C 236.521 57.660,237.158 57.404,237.250 57.333 C 237.342 57.263,237.679 57.150,238.000 57.083 C 238.321 57.016,238.658 56.904,238.750 56.834 C 238.842 56.765,239.517 56.503,240.250 56.253 C 240.983 56.003,241.658 55.741,241.750 55.670 C 241.842 55.599,242.104 55.488,242.333 55.424 C 242.563 55.359,243.275 55.116,243.917 54.884 C 245.542 54.294,245.696 54.236,246.167 54.025 C 246.396 53.922,247.408 53.540,248.417 53.176 C 252.055 51.861,253.922 51.158,254.206 50.997 C 254.365 50.907,254.646 50.833,254.831 50.833 C 255.016 50.833,255.167 50.777,255.167 50.708 C 255.167 50.640,255.935 50.321,256.875 50.001 C 257.815 49.681,258.621 49.379,258.667 49.330 C 258.712 49.281,259.387 49.025,260.167 48.763 C 260.946 48.500,261.655 48.221,261.742 48.142 C 261.829 48.064,262.016 48.000,262.158 47.999 C 262.300 47.998,262.614 47.895,262.856 47.769 C 263.098 47.642,263.698 47.407,264.190 47.245 C 264.681 47.084,265.472 46.775,265.948 46.559 C 266.423 46.343,266.892 46.167,266.989 46.167 C 267.087 46.167,267.167 46.104,267.167 46.028 C 267.167 45.952,267.549 45.711,268.016 45.493 C 268.483 45.274,269.009 44.980,269.184 44.839 C 269.359 44.698,269.814 44.358,270.193 44.083 C 271.951 42.811,274.117 40.427,275.347 38.411 C 276.977 35.739,277.637 34.161,278.168 31.667 C 278.276 31.162,278.451 30.450,278.557 30.083 C 278.815 29.193,278.810 24.123,278.550 23.250 C 278.441 22.883,278.193 21.908,277.998 21.083 C 277.802 20.258,277.542 19.358,277.418 19.083 C 277.294 18.808,277.146 18.419,277.089 18.219 C 276.780 17.142,274.798 13.908,273.585 12.501 C 271.848 10.487,268.026 7.500,267.187 7.500 C 267.084 7.500,267.000 7.432,267.000 7.350 C 267.000 7.267,266.794 7.122,266.542 7.028 C 264.390 6.225,263.200 5.833,262.910 5.833 C 262.721 5.833,262.495 5.767,262.408 5.685 C 261.848 5.160,257.443 4.923,254.835 5.277 M256.000 69.280 C 253.981 69.489,252.373 69.818,251.661 70.166 C 251.521 70.235,251.146 70.347,250.828 70.415 C 250.510 70.483,250.175 70.595,250.083 70.664 C 249.992 70.733,249.504 70.922,249.000 71.084 C 248.496 71.247,247.783 71.512,247.417 71.673 C 247.050 71.834,246.150 72.172,245.417 72.425 C 244.098 72.879,243.535 73.097,242.433 73.583 C 242.121 73.721,241.761 73.833,241.633 73.833 C 241.505 73.833,241.329 73.896,241.242 73.972 C 241.155 74.048,240.746 74.206,240.333 74.322 C 239.921 74.438,239.208 74.702,238.750 74.908 C 238.292 75.114,237.167 75.534,236.250 75.842 C 235.333 76.149,234.558 76.460,234.528 76.534 C 234.497 76.607,234.365 76.667,234.234 76.667 C 234.103 76.667,233.865 76.737,233.706 76.823 C 233.547 76.908,232.817 77.180,232.083 77.426 C 231.350 77.672,230.375 78.041,229.917 78.246 C 229.458 78.450,228.671 78.751,228.167 78.913 C 227.662 79.075,227.179 79.273,227.092 79.354 C 227.005 79.434,226.794 79.500,226.623 79.500 C 226.452 79.500,225.923 79.677,225.448 79.892 C 224.972 80.108,224.171 80.418,223.667 80.581 C 223.162 80.744,222.675 80.936,222.583 81.007 C 222.492 81.078,222.135 81.189,221.792 81.254 C 221.448 81.318,221.167 81.437,221.167 81.519 C 221.167 81.600,221.075 81.667,220.962 81.667 C 220.746 81.667,218.780 82.371,217.891 82.766 C 217.603 82.895,217.209 83.000,217.016 83.000 C 216.824 83.000,216.667 83.061,216.667 83.136 C 216.667 83.211,216.235 83.407,215.708 83.572 C 215.181 83.737,214.466 84.008,214.118 84.174 C 213.770 84.341,213.245 84.528,212.951 84.591 C 212.657 84.654,212.342 84.762,212.250 84.830 C 212.158 84.899,211.558 85.125,210.917 85.333 C 210.275 85.541,209.563 85.811,209.333 85.933 C 209.104 86.056,207.267 86.762,205.250 87.502 C 203.233 88.243,201.415 88.920,201.208 89.008 C 200.321 89.384,200.001 89.503,198.500 90.016 C 197.629 90.313,196.842 90.612,196.750 90.680 C 196.658 90.748,196.133 90.957,195.583 91.144 C 193.424 91.881,192.563 92.193,192.083 92.413 C 191.204 92.816,189.273 93.523,188.542 93.709 C 188.152 93.808,187.833 93.952,187.833 94.028 C 187.833 94.104,187.741 94.167,187.629 94.167 C 187.398 94.167,185.240 94.936,184.794 95.177 C 184.635 95.263,184.410 95.334,184.294 95.334 C 184.178 95.335,183.894 95.434,183.663 95.555 C 183.432 95.675,182.644 95.984,181.913 96.241 C 181.182 96.498,180.508 96.766,180.417 96.835 C 180.325 96.905,179.987 97.016,179.667 97.083 C 179.346 97.150,179.008 97.261,178.917 97.329 C 178.825 97.397,178.188 97.658,177.500 97.909 C 176.813 98.160,176.014 98.471,175.725 98.599 C 175.436 98.728,175.116 98.833,175.014 98.833 C 174.912 98.833,174.699 98.904,174.539 98.990 C 174.380 99.076,173.688 99.345,173.000 99.589 C 172.313 99.833,171.525 100.130,171.250 100.249 C 170.975 100.367,170.188 100.662,169.500 100.902 C 168.813 101.143,168.081 101.414,167.875 101.503 C 167.075 101.852,166.697 101.993,165.167 102.516 C 164.296 102.813,163.508 103.112,163.417 103.180 C 163.325 103.248,162.800 103.457,162.250 103.644 C 160.046 104.397,159.220 104.698,158.583 104.982 C 158.217 105.146,157.167 105.536,156.250 105.848 C 155.333 106.161,154.558 106.473,154.528 106.542 C 154.497 106.610,154.341 106.667,154.181 106.667 C 154.020 106.667,153.843 106.713,153.787 106.769 C 153.675 106.881,151.766 107.588,150.833 107.863 C 150.512 107.957,150.175 108.094,150.083 108.167 C 149.992 108.240,149.317 108.503,148.583 108.753 C 147.850 109.003,147.175 109.265,147.083 109.334 C 146.992 109.404,146.654 109.516,146.333 109.583 C 146.012 109.650,145.675 109.761,145.583 109.829 C 145.492 109.897,144.854 110.158,144.167 110.409 C 143.479 110.660,142.680 110.971,142.391 111.099 C 142.103 111.228,141.709 111.333,141.516 111.333 C 141.324 111.333,141.167 111.408,141.167 111.500 C 141.167 111.592,141.075 111.667,140.962 111.667 C 140.746 111.667,138.780 112.371,137.891 112.766 C 137.603 112.895,137.261 113.000,137.133 113.000 C 137.005 113.000,136.829 113.066,136.742 113.147 C 136.655 113.227,136.283 113.386,135.917 113.500 C 134.085 114.067,131.477 115.405,129.602 116.741 C 126.121 119.220,121.667 126.136,121.667 129.062 C 121.667 129.288,121.573 129.503,121.458 129.542 C 121.154 129.643,121.158 138.505,121.463 138.872 C 121.580 139.013,121.686 139.399,121.698 139.731 C 121.710 140.062,121.775 140.333,121.842 140.333 C 121.908 140.333,122.015 140.613,122.080 140.955 C 122.144 141.298,122.340 141.874,122.515 142.237 C 122.690 142.599,122.833 142.954,122.833 143.025 C 122.833 143.208,124.590 146.404,124.895 146.776 C 125.033 146.945,125.418 147.421,125.751 147.833 C 126.478 148.735,128.853 151.167,129.007 151.167 C 129.067 151.167,129.296 151.323,129.516 151.514 C 130.473 152.344,134.442 154.500,135.013 154.500 C 135.116 154.500,135.436 154.606,135.725 154.736 C 136.858 155.244,138.624 155.576,141.199 155.765 C 143.284 155.917,147.294 155.349,148.473 154.733 C 148.717 154.606,149.070 154.502,149.258 154.501 C 149.446 154.500,149.671 154.436,149.758 154.358 C 149.845 154.279,150.554 154.000,151.333 153.737 C 152.112 153.475,152.787 153.216,152.833 153.162 C 152.879 153.109,153.667 152.814,154.583 152.507 C 155.500 152.200,156.625 151.783,157.083 151.579 C 157.542 151.375,158.554 150.997,159.333 150.737 C 160.112 150.478,160.775 150.206,160.806 150.133 C 160.836 150.060,161.027 150.000,161.231 150.000 C 161.434 150.000,161.671 149.937,161.758 149.860 C 161.845 149.784,162.629 149.474,163.500 149.172 C 164.371 148.871,165.155 148.559,165.242 148.479 C 165.329 148.399,165.566 148.333,165.769 148.333 C 165.973 148.333,166.164 148.273,166.194 148.200 C 166.225 148.127,167.000 147.816,167.917 147.508 C 168.833 147.200,169.621 146.902,169.667 146.844 C 169.712 146.787,170.387 146.525,171.167 146.261 C 171.946 145.998,172.658 145.728,172.750 145.663 C 172.842 145.597,173.198 145.493,173.542 145.431 C 173.885 145.369,174.167 145.261,174.167 145.190 C 174.167 145.120,174.842 144.847,175.667 144.583 C 176.492 144.320,177.167 144.052,177.167 143.988 C 177.167 143.924,177.504 143.821,177.917 143.759 C 178.329 143.697,178.667 143.590,178.667 143.521 C 178.667 143.452,179.342 143.180,180.167 142.917 C 180.992 142.653,181.667 142.380,181.667 142.310 C 181.667 142.239,181.948 142.131,182.292 142.069 C 182.635 142.007,182.992 141.901,183.083 141.834 C 183.175 141.766,183.662 141.577,184.167 141.414 C 184.671 141.251,185.472 140.941,185.948 140.726 C 186.423 140.510,186.952 140.333,187.123 140.333 C 187.294 140.333,187.505 140.267,187.592 140.185 C 187.679 140.104,188.350 139.833,189.083 139.584 C 189.817 139.334,190.454 139.082,190.500 139.023 C 190.546 138.965,191.221 138.698,192.000 138.432 C 192.779 138.165,193.604 137.872,193.833 137.781 C 194.063 137.690,194.397 137.588,194.576 137.554 C 194.755 137.520,194.943 137.433,194.993 137.361 C 195.043 137.290,195.721 137.020,196.500 136.762 C 197.279 136.504,198.179 136.181,198.500 136.044 C 199.856 135.463,200.151 135.351,201.500 134.904 C 202.279 134.646,202.954 134.391,203.000 134.338 C 203.046 134.284,203.721 134.025,204.500 133.761 C 205.279 133.498,205.992 133.227,206.083 133.160 C 206.175 133.093,206.512 132.983,206.833 132.915 C 207.154 132.847,207.454 132.740,207.500 132.678 C 207.546 132.615,208.521 132.241,209.667 131.846 C 210.813 131.451,211.825 131.069,211.917 130.997 C 212.008 130.926,212.683 130.663,213.417 130.413 C 214.150 130.164,214.825 129.903,214.917 129.835 C 215.008 129.766,215.359 129.660,215.696 129.600 C 216.033 129.539,216.333 129.434,216.363 129.367 C 216.392 129.300,217.054 129.025,217.833 128.757 C 218.612 128.488,219.438 128.171,219.667 128.052 C 219.896 127.933,220.252 127.835,220.458 127.834 C 220.665 127.834,220.833 127.772,220.833 127.698 C 220.833 127.624,221.508 127.347,222.333 127.083 C 223.158 126.820,223.833 126.551,223.833 126.487 C 223.833 126.423,224.115 126.318,224.458 126.254 C 224.802 126.189,225.158 126.080,225.250 126.011 C 225.342 125.941,226.054 125.669,226.833 125.405 C 227.612 125.142,228.287 124.882,228.333 124.829 C 228.379 124.775,229.054 124.520,229.833 124.262 C 230.612 124.004,231.494 123.690,231.792 123.563 C 232.090 123.437,232.577 123.230,232.875 123.103 C 233.173 122.977,234.054 122.662,234.833 122.404 C 235.612 122.146,236.287 121.894,236.333 121.843 C 236.379 121.792,236.567 121.724,236.750 121.692 C 236.933 121.661,237.158 121.578,237.250 121.508 C 237.342 121.439,238.129 121.136,239.000 120.835 C 239.871 120.534,240.655 120.223,240.742 120.144 C 240.829 120.065,241.073 120.000,241.283 120.000 C 241.494 120.000,241.667 119.934,241.667 119.854 C 241.667 119.773,241.948 119.630,242.292 119.536 C 243.141 119.303,244.772 118.714,245.583 118.348 C 245.950 118.182,246.662 117.914,247.167 117.751 C 247.671 117.589,248.158 117.401,248.250 117.333 C 248.342 117.265,248.692 117.160,249.030 117.100 C 249.367 117.039,249.667 116.934,249.696 116.867 C 249.726 116.800,250.387 116.528,251.167 116.263 C 251.946 115.999,252.658 115.727,252.750 115.660 C 252.842 115.593,253.179 115.483,253.500 115.415 C 253.821 115.347,254.121 115.239,254.167 115.175 C 254.213 115.111,254.887 114.841,255.667 114.576 C 256.446 114.310,257.121 114.044,257.167 113.984 C 257.212 113.924,257.512 113.820,257.833 113.752 C 258.154 113.684,258.492 113.572,258.583 113.503 C 258.675 113.434,259.162 113.244,259.667 113.081 C 260.171 112.918,260.972 112.608,261.448 112.392 C 261.923 112.177,262.452 112.000,262.623 112.000 C 262.794 112.000,263.005 111.935,263.092 111.856 C 263.179 111.776,263.813 111.504,264.500 111.250 C 268.480 109.781,272.093 107.152,274.348 104.083 C 274.753 103.533,275.140 103.058,275.208 103.028 C 275.277 102.997,275.333 102.871,275.333 102.748 C 275.333 102.625,275.429 102.425,275.546 102.304 C 275.663 102.182,275.982 101.633,276.254 101.083 C 276.527 100.533,276.800 100.045,276.862 99.998 C 276.923 99.952,277.027 99.689,277.093 99.415 C 277.159 99.141,277.271 98.842,277.342 98.750 C 277.534 98.503,278.333 95.580,278.333 95.126 C 278.333 94.910,278.427 94.640,278.542 94.525 C 278.822 94.244,278.840 87.330,278.561 86.984 C 278.458 86.855,278.334 86.487,278.287 86.167 C 277.970 84.022,276.367 80.170,275.131 78.583 C 275.059 78.492,274.701 78.004,274.334 77.500 C 273.662 76.575,271.042 73.833,270.831 73.833 C 270.769 73.833,270.537 73.675,270.317 73.482 C 269.706 72.947,268.544 72.167,268.357 72.167 C 268.265 72.167,268.091 72.070,267.970 71.952 C 267.849 71.834,267.450 71.599,267.083 71.430 C 266.717 71.261,266.132 70.988,265.785 70.823 C 265.437 70.658,264.912 70.472,264.618 70.409 C 264.324 70.346,264.008 70.242,263.917 70.177 C 263.088 69.589,258.280 69.044,256.000 69.280 M253.667 133.749 C 252.012 134.103,250.664 134.490,249.917 134.823 C 249.733 134.905,248.721 135.288,247.667 135.673 C 246.612 136.059,245.525 136.472,245.250 136.590 C 244.975 136.708,244.262 136.968,243.667 137.166 C 243.071 137.364,242.512 137.595,242.425 137.680 C 242.338 137.764,242.150 137.834,242.008 137.834 C 241.866 137.835,241.552 137.939,241.310 138.065 C 241.069 138.191,240.469 138.421,239.977 138.576 C 239.123 138.845,238.796 138.967,237.958 139.329 C 237.752 139.418,237.246 139.610,236.833 139.755 C 235.194 140.331,234.326 140.653,233.801 140.882 C 233.132 141.173,231.074 141.928,230.500 142.093 C 230.271 142.159,229.694 142.390,229.219 142.606 C 228.744 142.823,228.297 143.000,228.227 143.000 C 228.099 143.000,225.204 144.069,224.583 144.345 C 224.400 144.426,223.688 144.690,223.000 144.931 C 222.313 145.172,221.525 145.466,221.250 145.585 C 220.975 145.704,220.188 146.000,219.500 146.244 C 218.813 146.488,218.120 146.758,217.961 146.844 C 217.801 146.930,217.588 147.000,217.486 147.000 C 217.384 147.000,217.064 147.105,216.775 147.232 C 215.723 147.698,212.631 148.833,212.416 148.833 C 212.294 148.833,212.169 148.891,212.139 148.961 C 212.108 149.031,211.446 149.305,210.667 149.569 C 209.887 149.833,209.179 150.113,209.092 150.191 C 209.005 150.269,208.817 150.334,208.675 150.334 C 208.533 150.335,208.229 150.433,208.000 150.552 C 207.771 150.671,206.946 150.985,206.167 151.248 C 205.387 151.512,204.679 151.789,204.592 151.864 C 204.505 151.939,204.328 152.000,204.200 152.000 C 204.072 152.000,203.731 152.110,203.442 152.244 C 203.153 152.378,202.354 152.686,201.667 152.930 C 200.979 153.173,200.342 153.430,200.250 153.500 C 200.158 153.571,199.821 153.683,199.500 153.750 C 199.179 153.817,198.842 153.929,198.750 153.999 C 198.658 154.069,197.983 154.330,197.250 154.580 C 196.517 154.830,195.842 155.092,195.750 155.163 C 195.658 155.234,195.396 155.347,195.167 155.413 C 194.604 155.576,191.666 156.642,191.250 156.835 C 190.873 157.010,185.898 158.869,184.500 159.358 C 183.996 159.534,183.415 159.751,183.208 159.839 C 183.002 159.928,182.665 160.072,182.458 160.161 C 181.892 160.404,180.164 161.013,179.458 161.220 C 179.115 161.320,178.833 161.462,178.833 161.534 C 178.833 161.607,178.748 161.667,178.643 161.667 C 178.413 161.667,174.651 163.000,174.417 163.165 C 174.325 163.229,173.612 163.495,172.833 163.755 C 172.054 164.015,171.345 164.289,171.258 164.364 C 171.171 164.439,170.995 164.500,170.867 164.500 C 170.739 164.500,170.397 164.610,170.109 164.744 C 169.820 164.878,169.021 165.186,168.333 165.430 C 167.646 165.673,167.008 165.930,166.917 166.000 C 166.825 166.071,166.487 166.183,166.167 166.250 C 165.846 166.317,165.508 166.431,165.417 166.503 C 165.325 166.575,164.785 166.786,164.217 166.972 C 163.648 167.158,162.936 167.424,162.633 167.564 C 162.331 167.704,161.783 167.924,161.417 168.053 C 159.597 168.694,158.217 169.201,157.917 169.338 C 157.733 169.422,157.283 169.595,156.917 169.723 C 155.244 170.304,153.736 170.883,153.583 171.002 C 153.492 171.074,153.154 171.209,152.833 171.302 C 152.079 171.522,150.368 172.127,149.833 172.361 C 149.020 172.719,148.729 172.830,146.833 173.504 C 145.779 173.879,144.767 174.255,144.583 174.339 C 144.400 174.424,143.688 174.690,143.000 174.931 C 142.313 175.172,141.525 175.466,141.250 175.585 C 140.975 175.704,140.188 176.000,139.500 176.244 C 138.813 176.488,138.120 176.758,137.961 176.844 C 137.801 176.930,137.576 177.000,137.461 177.001 C 137.345 177.002,137.063 177.100,136.833 177.219 C 136.604 177.338,135.798 177.650,135.042 177.913 C 134.285 178.176,133.667 178.453,133.667 178.529 C 133.667 178.605,133.535 178.667,133.375 178.668 C 133.215 178.668,132.858 178.823,132.583 179.011 C 132.308 179.199,131.905 179.425,131.687 179.514 C 130.350 180.056,127.381 182.604,125.912 184.469 C 125.456 185.048,124.952 185.678,124.792 185.870 C 124.631 186.061,124.500 186.312,124.500 186.428 C 124.500 186.544,124.434 186.664,124.354 186.694 C 124.118 186.784,122.547 189.999,122.249 191.000 C 122.099 191.504,121.906 192.047,121.821 192.206 C 121.736 192.365,121.667 192.706,121.667 192.964 C 121.667 193.222,121.573 193.527,121.458 193.642 C 121.302 193.798,121.250 194.952,121.250 198.250 C 121.250 201.548,121.302 202.702,121.458 202.858 C 121.573 202.973,121.667 203.242,121.667 203.455 C 121.667 204.009,122.880 207.553,123.165 207.833 C 123.212 207.879,123.472 208.367,123.744 208.917 C 124.015 209.467,124.278 209.954,124.327 210.000 C 124.376 210.046,124.695 210.496,125.036 211.000 C 125.984 212.403,127.865 214.323,129.772 215.833 C 130.751 216.609,133.192 218.000,133.574 218.000 C 133.717 218.000,133.833 218.056,133.833 218.125 C 133.833 218.194,134.302 218.395,134.875 218.571 C 135.448 218.748,135.988 218.954,136.075 219.030 C 136.162 219.105,136.428 219.167,136.667 219.167 C 136.905 219.167,137.171 219.237,137.258 219.322 C 137.981 220.032,146.047 220.043,146.917 219.335 C 147.008 219.260,147.308 219.173,147.583 219.142 C 147.858 219.110,148.121 219.044,148.167 218.996 C 148.212 218.947,148.925 218.692,149.750 218.431 C 150.575 218.169,151.438 217.858,151.667 217.740 C 152.207 217.462,155.219 216.334,155.425 216.332 C 155.512 216.332,155.789 216.224,156.041 216.093 C 156.292 215.961,157.080 215.654,157.791 215.410 C 158.502 215.166,159.158 214.907,159.250 214.835 C 159.342 214.764,159.679 214.650,160.000 214.583 C 160.321 214.516,160.658 214.402,160.750 214.329 C 160.842 214.257,161.404 214.034,162.000 213.835 C 162.596 213.635,163.308 213.375,163.583 213.257 C 163.858 213.138,164.946 212.724,166.000 212.337 C 167.054 211.950,168.153 211.528,168.442 211.400 C 168.731 211.272,169.050 211.167,169.152 211.167 C 169.254 211.167,169.468 211.097,169.627 211.012 C 170.241 210.684,173.546 209.500,173.848 209.500 C 174.023 209.500,174.167 209.434,174.167 209.353 C 174.167 209.272,174.804 209.003,175.582 208.755 C 176.361 208.507,177.035 208.244,177.081 208.171 C 177.126 208.097,177.370 207.988,177.623 207.929 C 178.089 207.819,180.829 206.817,181.750 206.420 C 182.025 206.302,182.737 206.038,183.333 205.833 C 183.929 205.629,184.642 205.366,184.917 205.248 C 185.820 204.863,188.597 203.833,188.733 203.833 C 188.806 203.833,189.140 203.713,189.475 203.566 C 190.301 203.204,190.522 203.119,192.250 202.497 C 193.075 202.200,194.050 201.827,194.417 201.667 C 194.783 201.508,195.271 201.325,195.500 201.261 C 195.729 201.198,196.104 201.065,196.333 200.967 C 196.563 200.869,196.900 200.732,197.083 200.663 C 197.267 200.594,198.433 200.154,199.676 199.685 C 200.919 199.217,202.046 198.833,202.181 198.833 C 202.315 198.833,202.574 198.731,202.755 198.606 C 202.935 198.481,203.683 198.173,204.417 197.922 C 205.150 197.671,205.829 197.402,205.925 197.324 C 206.021 197.245,206.415 197.131,206.800 197.069 C 207.185 197.008,207.500 196.903,207.500 196.835 C 207.500 196.768,207.998 196.550,208.607 196.350 C 209.216 196.150,210.037 195.840,210.431 195.660 C 210.826 195.480,211.205 195.333,211.274 195.333 C 211.405 195.333,214.204 194.293,215.083 193.918 C 215.358 193.801,216.071 193.536,216.667 193.329 C 217.262 193.123,218.688 192.589,219.833 192.144 C 220.979 191.698,221.980 191.334,222.058 191.334 C 222.136 191.333,222.473 191.213,222.808 191.066 C 223.649 190.697,223.875 190.611,225.583 190.003 C 226.408 189.709,227.214 189.401,227.373 189.318 C 227.532 189.235,227.813 189.167,227.998 189.167 C 228.182 189.167,228.333 189.098,228.333 189.013 C 228.333 188.929,228.577 188.808,228.875 188.744 C 229.173 188.680,229.492 188.572,229.583 188.504 C 229.675 188.435,229.965 188.328,230.227 188.265 C 230.489 188.202,231.014 188.013,231.393 187.843 C 232.510 187.345,235.205 186.369,235.792 186.250 C 236.090 186.190,236.333 186.081,236.333 186.010 C 236.333 185.938,236.765 185.746,237.292 185.583 C 237.819 185.421,238.534 185.153,238.882 184.989 C 239.230 184.825,239.755 184.639,240.049 184.576 C 240.343 184.513,240.658 184.403,240.750 184.331 C 240.842 184.260,241.517 183.997,242.250 183.747 C 242.983 183.497,243.658 183.236,243.750 183.167 C 243.842 183.097,244.104 182.988,244.333 182.923 C 244.879 182.769,247.769 181.697,248.442 181.399 C 248.731 181.271,249.050 181.167,249.152 181.167 C 249.254 181.167,249.468 181.097,249.627 181.012 C 249.997 180.814,255.034 178.931,255.917 178.661 C 256.283 178.549,256.771 178.361,257.000 178.244 C 257.229 178.128,258.279 177.717,259.333 177.333 C 260.387 176.948,261.475 176.534,261.750 176.414 C 262.025 176.293,262.775 176.028,263.417 175.825 C 264.058 175.622,264.771 175.360,265.000 175.242 C 265.229 175.125,266.079 174.716,266.887 174.334 C 269.221 173.231,270.878 172.024,272.750 170.063 C 273.837 168.924,273.861 168.897,274.588 167.917 C 274.861 167.550,275.140 167.225,275.208 167.194 C 275.277 167.164,275.333 167.038,275.333 166.915 C 275.333 166.791,275.429 166.591,275.546 166.470 C 275.663 166.349,275.982 165.800,276.254 165.250 C 276.527 164.700,276.794 164.212,276.847 164.167 C 277.089 163.958,278.333 160.019,278.333 159.460 C 278.333 159.244,278.419 158.981,278.523 158.877 C 278.788 158.612,278.915 153.538,278.691 152.167 C 278.326 149.930,277.620 147.227,277.323 146.925 C 277.237 146.838,277.166 146.650,277.166 146.508 C 277.165 146.366,277.042 146.025,276.892 145.750 C 276.742 145.475,276.439 144.912,276.218 144.500 C 275.592 143.330,274.607 141.805,274.066 141.167 C 273.259 140.215,270.722 137.815,270.014 137.333 C 269.542 137.012,269.065 136.675,268.953 136.583 C 268.581 136.277,265.992 135.000,265.744 135.000 C 265.610 135.000,265.500 134.937,265.500 134.859 C 265.500 134.686,262.974 133.921,261.500 133.648 C 259.487 133.275,255.647 133.324,253.667 133.749 " stroke="none" fill="#042464" fill-rule="evenodd"></path><path id="path1" d="" stroke="none" fill="#082464" fill-rule="evenodd"></path></g></svg>